    <svg width="150" height="44" viewBox="0 0 150 44" fill="none" xmlns="http://www.w3.org/2000/svg">
        <g clip-path="url(#clip0_2306_37746)">
            <path fill-rule="evenodd" clip-rule="evenodd" d="M0.842712 38.1333V5.86667C0.842712 2.6266 3.46931 0 6.70938 0H143.403C146.643 0 149.269 2.6266 149.269 5.86667V38.1333C149.269 41.3734 146.643 44 143.403 44H6.70938C3.46931 44 0.842712 41.3734 0.842712 38.1333ZM1.72271 38.1333V5.86667C1.72271 3.11261 3.95532 0.88 6.70938 0.88H143.403C146.157 0.88 148.389 3.11261 148.389 5.86667V38.1333C148.389 40.8874 146.157 43.12 143.403 43.12H6.70938C3.95532 43.12 1.72271 40.8874 1.72271 38.1333Z" fill="white"></path>
            <path d="M54.2959 32.8526L53.0412 29.3635H48.2373L47.0084 32.8526H44.8428L49.5436 20.237H51.778L56.4787 32.8526H54.2959ZM52.4998 27.5932L51.3225 24.1729C51.2365 23.9437 51.1162 23.5828 50.9615 23.0901C50.8126 22.5974 50.7095 22.2364 50.6522 22.0073C50.4975 22.712 50.2712 23.4825 49.9733 24.319L48.8389 27.5932H52.4998Z" fill="white"></path>
            <path d="M62.4796 33.0245C61.2765 33.0245 60.3426 32.5919 59.678 31.7268H59.5577C59.6379 32.5289 59.678 33.0159 59.678 33.1877V37.0807H57.6585V23.3479H59.2913C59.3371 23.5255 59.4317 23.9495 59.5749 24.6198H59.678C60.3082 23.6573 61.2535 23.176 62.514 23.176C63.6999 23.176 64.6223 23.6057 65.2811 24.4651C65.9457 25.3245 66.278 26.5305 66.278 28.0831C66.278 29.6357 65.94 30.8474 65.264 31.7182C64.5936 32.589 63.6655 33.0245 62.4796 33.0245ZM61.9897 24.826C61.1876 24.826 60.6004 25.0609 60.228 25.5307C59.8613 26.0005 59.678 26.751 59.678 27.7823V28.0831C59.678 29.2403 59.8613 30.0797 60.228 30.601C60.5947 31.1167 61.1934 31.3745 62.0241 31.3745C62.7231 31.3745 63.2616 31.088 63.6397 30.5151C64.0179 29.9422 64.2069 29.1258 64.2069 28.0659C64.2069 27.0002 64.0179 26.1953 63.6397 25.651C63.2673 25.101 62.7173 24.826 61.9897 24.826Z" fill="white"></path>
            <path d="M73.1812 33.0245C71.9781 33.0245 71.0442 32.5919 70.3796 31.7268H70.2593C70.3395 32.5289 70.3796 33.0159 70.3796 33.1877V37.0807H68.3601V23.3479H69.9929C70.0388 23.5255 70.1333 23.9495 70.2765 24.6198H70.3796C71.0098 23.6573 71.9552 23.176 73.2156 23.176C74.4015 23.176 75.3239 23.6057 75.9828 24.4651C76.6473 25.3245 76.9796 26.5305 76.9796 28.0831C76.9796 29.6357 76.6416 30.8474 75.9656 31.7182C75.2953 32.589 74.3671 33.0245 73.1812 33.0245ZM72.6914 24.826C71.8893 24.826 71.302 25.0609 70.9296 25.5307C70.563 26.0005 70.3796 26.751 70.3796 27.7823V28.0831C70.3796 29.2403 70.563 30.0797 70.9296 30.601C71.2963 31.1167 71.895 31.3745 72.7257 31.3745C73.4247 31.3745 73.9632 31.088 74.3414 30.5151C74.7195 29.9422 74.9085 29.1258 74.9085 28.0659C74.9085 27.0002 74.7195 26.1953 74.3414 25.651C73.969 25.101 73.419 24.826 72.6914 24.826Z" fill="white"></path>
            <path d="M84.4156 26.0377H89.0391V32.3456C88.2828 32.5919 87.5552 32.7667 86.8563 32.8698C86.163 32.9729 85.4125 33.0245 84.6047 33.0245C82.7026 33.0245 81.236 32.463 80.2047 31.3401C79.1735 30.2114 78.6578 28.6216 78.6578 26.5706C78.6578 24.5482 79.2393 22.9669 80.4024 21.8268C81.5654 20.681 83.1667 20.1081 85.2063 20.1081C86.5182 20.1081 87.7615 20.3601 88.936 20.8643L88.2141 22.5745C87.1943 22.1047 86.1745 21.8698 85.1547 21.8698C83.8141 21.8698 82.7542 22.2909 81.975 23.1331C81.1958 23.9752 80.8063 25.1268 80.8063 26.5877C80.8063 28.1232 81.1557 29.2919 81.8547 30.094C82.5594 30.8903 83.5706 31.2885 84.8883 31.2885C85.5529 31.2885 86.2633 31.2055 87.0195 31.0393V27.7995H84.4156V26.0377Z" fill="white"></path>
            <path d="M97.5321 32.8526L97.1282 31.5292H97.0594C96.6011 32.1078 96.1399 32.5031 95.6759 32.7151C95.2118 32.9213 94.616 33.0245 93.8884 33.0245C92.9545 33.0245 92.224 32.7724 91.6969 32.2682C91.1756 31.764 90.9149 31.0508 90.9149 30.1284C90.9149 29.1487 91.2787 28.4096 92.0063 27.9112C92.7339 27.4127 93.8425 27.1406 95.3321 27.0948L96.9735 27.0432V26.5362C96.9735 25.9289 96.8303 25.4763 96.5438 25.1784C96.2631 24.8747 95.8248 24.7229 95.229 24.7229C94.742 24.7229 94.2751 24.7945 93.8282 24.9377C93.3813 25.081 92.9516 25.25 92.5391 25.4448L91.886 24.001C92.4016 23.7318 92.966 23.5284 93.579 23.3909C94.192 23.2476 94.7706 23.176 95.3149 23.176C96.5238 23.176 97.4347 23.4396 98.0477 23.9667C98.6665 24.4937 98.9759 25.3216 98.9759 26.4502V32.8526H97.5321ZM94.5243 31.4776C95.2576 31.4776 95.8449 31.2742 96.286 30.8674C96.7329 30.4549 96.9563 29.8792 96.9563 29.1401V28.3151L95.736 28.3667C94.785 28.401 94.0917 28.5614 93.6563 28.8479C93.2266 29.1286 93.0118 29.5612 93.0118 30.1456C93.0118 30.5695 93.1378 30.8989 93.3899 31.1338C93.642 31.363 94.0201 31.4776 94.5243 31.4776Z" fill="white"></path>
            <path d="M103.55 32.8526H101.531V19.4807H103.55V32.8526Z" fill="white"></path>
            <path d="M108.202 32.8526H106.182V19.4807H108.202V32.8526Z" fill="white"></path>
            <path d="M114.985 33.0245C113.507 33.0245 112.349 32.5948 111.513 31.7354C110.682 30.8703 110.267 29.6815 110.267 28.169C110.267 26.6164 110.653 25.3961 111.427 24.5081C112.2 23.62 113.263 23.176 114.615 23.176C115.87 23.176 116.861 23.557 117.589 24.319C118.316 25.081 118.68 26.1294 118.68 27.4643V28.5557H112.346C112.375 29.4781 112.624 30.1885 113.094 30.687C113.564 31.1797 114.226 31.426 115.079 31.426C115.641 31.426 116.162 31.3745 116.643 31.2713C117.13 31.1625 117.652 30.9849 118.207 30.7385V32.3799C117.715 32.6148 117.216 32.781 116.712 32.8784C116.208 32.9758 115.632 33.0245 114.985 33.0245ZM114.615 24.7057C113.973 24.7057 113.458 24.9091 113.068 25.3159C112.684 25.7226 112.455 26.3156 112.381 27.0948H116.695C116.683 26.3099 116.494 25.7169 116.128 25.3159C115.761 24.9091 115.257 24.7057 114.615 24.7057Z" fill="white"></path>
            <path d="M125.532 23.176C125.938 23.176 126.273 23.2047 126.537 23.262L126.339 25.144C126.053 25.0752 125.755 25.0409 125.446 25.0409C124.638 25.0409 123.982 25.3044 123.478 25.8315C122.979 26.3586 122.73 27.0432 122.73 27.8854V32.8526H120.71V23.3479H122.292L122.558 25.0237H122.661C122.976 24.4565 123.386 24.0068 123.89 23.6745C124.4 23.3422 124.947 23.176 125.532 23.176Z" fill="white"></path>
            <path d="M126.6 23.3479H128.8L130.733 28.7362C131.025 29.5039 131.22 30.2258 131.318 30.9018H131.386C131.438 30.5867 131.532 30.2057 131.67 29.7588C131.807 29.3062 132.535 27.1693 133.853 23.3479H136.036L131.971 34.1159C131.232 36.0924 130 37.0807 128.275 37.0807C127.829 37.0807 127.393 37.032 126.969 36.9346V35.3362C127.273 35.4049 127.619 35.4393 128.009 35.4393C128.983 35.4393 129.668 34.875 130.063 33.7463L130.415 32.8526L126.6 23.3479Z" fill="white"></path>
            <path d="M51.2493 12.397C51.2493 13.4197 50.9929 14.2146 50.4801 14.7818C49.9702 15.349 49.2469 15.6326 48.3102 15.6326C47.362 15.6326 46.633 15.3519 46.1231 14.7904C45.616 14.2261 45.3625 13.4254 45.3625 12.3885C45.3625 11.3515 45.6175 10.5551 46.1274 9.99939C46.6401 9.44366 47.3706 9.1658 48.3188 9.1658C49.2526 9.1658 49.9745 9.44796 50.4844 10.0123C50.9943 10.5766 51.2493 11.3715 51.2493 12.397ZM46.4539 12.397C46.4539 13.1705 46.6101 13.7577 46.9223 14.1588C47.2345 14.5569 47.6972 14.756 48.3102 14.756C48.9203 14.756 49.3801 14.5584 49.6895 14.1631C50.0017 13.7677 50.1578 13.1791 50.1578 12.397C50.1578 11.6265 50.0032 11.0421 49.6938 10.6439C49.3873 10.2457 48.9289 10.0467 48.3188 10.0467C47.7029 10.0467 47.2374 10.2457 46.9223 10.6439C46.6101 11.0421 46.4539 11.6265 46.4539 12.397Z" fill="white"></path>
            <path d="M54.7684 15.5467H53.7414V10.1455H51.8938V9.26462H56.616V10.1455H54.7684V15.5467Z" fill="white"></path>
            <path d="M62.4039 15.5467H61.1965L58.6098 12.3627V15.5467H57.5828V9.26462H58.6098V12.3068L61.1535 9.26462H62.2793L59.7442 12.2982L62.4039 15.5467Z" fill="white"></path>
            <path d="M67.3969 11.1638C67.3969 11.8198 67.1821 12.3226 66.7524 12.672C66.3227 13.0215 65.7111 13.1963 64.9176 13.1963H64.2645V15.5467H63.2375V9.26462H65.0465C65.8314 9.26462 66.4187 9.42504 66.8082 9.74587C67.2007 10.0667 67.3969 10.5394 67.3969 11.1638ZM64.2645 12.3326H64.8102C65.3373 12.3326 65.724 12.2409 65.9703 12.0576C66.2167 11.8743 66.3399 11.5878 66.3399 11.1982C66.3399 10.8373 66.2296 10.568 66.009 10.3904C65.7884 10.2128 65.4447 10.124 64.9778 10.124H64.2645V12.3326Z" fill="white"></path>
            <path d="M74.2289 12.397C74.2289 13.4197 73.9726 14.2146 73.4598 14.7818C72.9499 15.349 72.2266 15.6326 71.2899 15.6326C70.3417 15.6326 69.6127 15.3519 69.1028 14.7904C68.5957 14.2261 68.3422 13.4254 68.3422 12.3885C68.3422 11.3515 68.5972 10.5551 69.1071 9.99939C69.6198 9.44366 70.3503 9.1658 71.2985 9.1658C72.2323 9.1658 72.9542 9.44796 73.4641 10.0123C73.974 10.5766 74.2289 11.3715 74.2289 12.397ZM69.4336 12.397C69.4336 13.1705 69.5897 13.7577 69.902 14.1588C70.2142 14.5569 70.6769 14.756 71.2899 14.756C71.9 14.756 72.3598 14.5584 72.6692 14.1631C72.9814 13.7677 73.1375 13.1791 73.1375 12.397C73.1375 11.6265 72.9828 11.0421 72.6735 10.6439C72.367 10.2457 71.9086 10.0467 71.2985 10.0467C70.6826 10.0467 70.2171 10.2457 69.902 10.6439C69.5897 11.0421 69.4336 11.6265 69.4336 12.397Z" fill="white"></path>
            <path d="M75.5782 9.26462H76.5192V12.5302C76.5192 12.8711 76.5106 13.2163 76.4934 13.5658C76.4762 13.9124 76.4633 14.1473 76.4547 14.2705H76.4934L79.7032 9.26462H80.902V15.5467H79.9567V12.3068C79.9567 11.8112 79.9839 11.2097 80.0383 10.5021H80.0039L76.7813 15.5467H75.5782V9.26462ZM78.2723 8.76189C77.665 8.76189 77.2196 8.65304 76.936 8.43533C76.6552 8.21475 76.4991 7.84809 76.4676 7.33533H77.3828C77.4 7.54158 77.4387 7.70199 77.4989 7.81658C77.5619 7.93116 77.6507 8.01423 77.7653 8.0658C77.8827 8.11449 78.0603 8.13884 78.2981 8.13884C78.5788 8.13884 78.7922 8.07725 78.9383 7.95408C79.0844 7.82804 79.1732 7.62179 79.2047 7.33533H80.1371C80.0942 7.82804 79.9209 8.18897 79.6172 8.41814C79.3136 8.64731 78.8653 8.76189 78.2723 8.76189Z" fill="white"></path>
            <path d="M84.7176 15.5467H83.6907V10.1455H81.843V9.26462H86.5653V10.1455H84.7176V15.5467Z" fill="white"></path>
            <path d="M91.0856 15.5467H87.5321V9.26462H91.0856V10.1326H88.559V11.8427H90.9266V12.7021H88.559V14.6744H91.0856V15.5467Z" fill="white"></path>
            <path d="M94.7336 9.26462H96.5985C97.4636 9.26462 98.0881 9.39067 98.4719 9.64275C98.8586 9.89483 99.052 10.293 99.052 10.8373C99.052 11.2039 98.9575 11.509 98.7684 11.7525C98.5793 11.996 98.3072 12.1493 97.952 12.2123V12.2552C98.3931 12.3383 98.7168 12.503 98.9231 12.7494C99.1322 12.9929 99.2368 13.3237 99.2368 13.742C99.2368 14.3063 99.0391 14.7489 98.6438 15.0697C98.2513 15.3877 97.7042 15.5467 97.0024 15.5467H94.7336V9.26462ZM95.7606 11.8599H96.7489C97.1785 11.8599 97.4922 11.7926 97.6899 11.658C97.8875 11.5205 97.9864 11.2885 97.9864 10.9619C97.9864 10.6668 97.8789 10.4534 97.6641 10.3217C97.4521 10.1899 97.1141 10.124 96.65 10.124H95.7606V11.8599ZM95.7606 12.6935V14.683H96.852C97.2817 14.683 97.6054 14.6013 97.8231 14.4381C98.0437 14.2719 98.1539 14.0112 98.1539 13.656C98.1539 13.3295 98.0422 13.0874 97.8188 12.9299C97.5953 12.7723 97.2559 12.6935 96.8004 12.6935H95.7606Z" fill="white"></path>
            <path d="M23.7048 24.2281H24.8235L24.2622 22.9228L23.7048 24.2281Z" fill="white"></path>
            <path fill-rule="evenodd" clip-rule="evenodd" d="M19.3684 8.06604C13.6434 8.06604 11.5494 10.1596 11.5494 15.8834V28.1153C11.5494 33.8391 13.6434 35.9327 19.3684 35.9327H31.5935C37.3183 35.9327 39.4161 33.8391 39.4161 28.1153V15.8834C39.4161 10.1596 37.3221 8.06604 31.5972 8.06604H19.3684ZM23.4293 24.8859L23.0974 25.6454H22.3417L23.9487 21.9996H24.6018L26.2023 25.6454H25.4265L25.0988 24.8859H23.4293ZM35.5895 25.6427H36.3198V21.9994H35.5895V25.6427ZM32.6825 24.0776H34.0288V23.4133H32.6825V22.6666H34.6369V22.0021H31.9524V25.6452H34.7072V24.9807H32.6825V24.0776ZM29.7805 24.5081L28.9525 21.9994H28.3482L27.5202 24.5081L26.7143 22.0014H25.9264L27.1981 25.6474H27.8106L28.64 23.2525L29.4694 25.6474H30.0873L31.3557 22.0014H30.5881L29.7805 24.5081ZM21.2267 24.0877C21.2267 24.6808 20.9322 24.9977 20.3974 24.9977C19.8596 24.9977 19.5635 24.6716 19.5635 24.0624V22.0018H18.8233V24.0877C18.8233 25.1137 19.3935 25.7021 20.3873 25.7021C21.3909 25.7021 21.9663 25.1025 21.9663 24.0572V21.9996H21.2267V24.0877ZM17.0573 21.9996H17.797V25.6477H17.0573V24.1661H15.386V25.6477H14.6458V21.9996H15.386V23.4711H17.0573V21.9996ZM20.8383 12.7105C20.8383 15.2715 22.9216 17.3549 25.4828 17.3549C28.0438 17.3549 30.1272 15.2715 30.1272 12.7105H29.4712C29.4712 14.9095 27.6818 16.6987 25.4828 16.6987C23.2837 16.6987 21.4944 14.9095 21.4944 12.7105H20.8383Z" fill="white"></path>
        </g>
        <defs>
            <clipPath id="clip0_2306_37746">
                <rect width="148.427" height="44" fill="white" transform="translate(0.842712)"></rect>
            </clipPath>
        </defs>
    </svg>