    <svg width="149" height="44" viewBox="0 0 149 44" fill="none" xmlns="http://www.w3.org/2000/svg">
        <path d="M142.93 0.879566C144.154 0.879566 145.329 1.36607 146.195 2.23206C147.061 3.09805 147.547 4.27259 147.547 5.49728V38.481C147.547 39.7057 147.061 40.8802 146.195 41.7462C145.329 42.6122 144.154 43.0987 142.93 43.0987H5.49753C4.27283 43.0987 3.0983 42.6122 2.23231 41.7462C1.36632 40.8802 0.87981 39.7057 0.87981 38.481V5.49728C0.87981 4.27259 1.36632 3.09805 2.23231 2.23206C3.0983 1.36607 4.27283 0.879566 5.49753 0.879566H142.93ZM142.93 0H5.49753C4.03956 0 2.6413 0.579176 1.61036 1.61012C0.579421 2.64106 0.000244141 4.03931 0.000244141 5.49728V38.481C0.000244141 39.939 0.579421 41.3372 1.61036 42.3682C2.6413 43.3991 4.03956 43.9783 5.49753 43.9783H142.93C144.388 43.9783 145.786 43.3991 146.817 42.3682C147.848 41.3372 148.427 39.939 148.427 38.481V5.49728C148.427 4.03931 147.848 2.64106 146.817 1.61012C145.786 0.579176 144.388 0 142.93 0Z" fill="white"></path>
        <path d="M35.3102 21.2338C35.2799 17.8574 38.0748 16.2149 38.2026 16.1384C36.6197 13.8306 34.1663 13.5153 33.3041 13.4901C31.2436 13.2733 29.2448 14.7231 28.1951 14.7231C27.1245 14.7231 25.5081 13.5111 23.766 13.5467C21.5242 13.5813 19.427 14.8792 18.2768 16.8947C15.903 21.0043 17.6734 27.0436 19.9476 30.3654C21.0853 31.9923 22.4147 33.8088 24.1547 33.7449C25.857 33.6747 26.4928 32.6596 28.5471 32.6596C30.5826 32.6596 31.1797 33.7449 32.9542 33.704C34.7812 33.6747 35.9314 32.0698 37.0293 30.4283C38.344 28.5636 38.872 26.7272 38.8929 26.6329C38.85 26.6183 35.3448 25.2805 35.3102 21.2338Z" fill="white"></path>
        <path d="M31.9582 11.3048C32.8738 10.1598 33.5002 8.60202 33.3263 7.02124C32.0011 7.0799 30.3439 7.93786 29.3895 9.05771C28.5452 10.0445 27.791 11.662 27.9858 13.183C29.4744 13.2941 31.0028 12.4319 31.9582 11.3048Z" fill="white"></path>
        <path d="M59.9467 33.5117H57.5676L56.2645 29.4168H51.7348L50.4934 33.5117H48.1772L52.665 19.5707H55.4369L59.9467 33.5117ZM55.8716 27.6988L54.6931 24.0585C54.5685 23.6866 54.3348 22.8108 53.9902 21.4322H53.9483C53.8111 22.0251 53.59 22.9009 53.2862 24.0585L52.1287 27.6988H55.8716V27.6988Z" fill="white"></path>
        <path d="M71.4852 28.3611C71.4852 30.0707 71.0232 31.4221 70.0992 32.4141C69.2717 33.2972 68.244 33.7382 67.0173 33.7382C65.6932 33.7382 64.742 33.2626 64.1627 32.3115H64.1208V37.6069H61.8874V26.7677C61.8874 25.6929 61.8591 24.5898 61.8046 23.4584H63.7688L63.8934 25.0518H63.9354C64.6802 23.8513 65.8105 23.2521 67.3274 23.2521C68.5132 23.2521 69.5032 23.7203 70.2951 24.6579C71.0892 25.5965 71.4852 26.8306 71.4852 28.3611ZM69.2099 28.4428C69.2099 27.4644 68.9899 26.6577 68.5478 26.0229C68.0649 25.3608 67.4164 25.0298 66.6035 25.0298C66.0525 25.0298 65.5517 25.2142 65.1044 25.5777C64.6561 25.9443 64.3628 26.4231 64.2255 27.016C64.1564 27.2926 64.1218 27.5188 64.1218 27.6969V29.373C64.1218 30.1042 64.346 30.7212 64.7944 31.2251C65.2427 31.729 65.8252 31.9804 66.5417 31.9804C67.3829 31.9804 68.0376 31.6557 68.5059 31.0083C68.9752 30.3598 69.2099 29.505 69.2099 28.4428Z" fill="white"></path>
        <path d="M83.0496 28.3611C83.0496 30.0707 82.5876 31.4221 81.6626 32.4141C80.8361 33.2972 79.8084 33.7382 78.5817 33.7382C77.2576 33.7382 76.3064 33.2626 75.7281 32.3115H75.6862V37.6069H73.4528V26.7677C73.4528 25.6929 73.4245 24.5898 73.3701 23.4584H75.3343L75.4589 25.0518H75.5008C76.2446 23.8513 77.3749 23.2521 78.8929 23.2521C80.0777 23.2521 81.0676 23.7203 81.8617 24.6579C82.6526 25.5965 83.0496 26.8306 83.0496 28.3611ZM80.7743 28.4428C80.7743 27.4644 80.5533 26.6577 80.1112 26.0229C79.6282 25.3608 78.9819 25.0298 78.1679 25.0298C77.6159 25.0298 77.1162 25.2142 76.6678 25.5777C76.2195 25.9443 75.9272 26.4231 75.79 27.016C75.7219 27.2926 75.6862 27.5188 75.6862 27.6969V29.373C75.6862 30.1042 75.9104 30.7212 76.3567 31.2251C76.805 31.728 77.3875 31.9804 78.1061 31.9804C78.9473 31.9804 79.6021 31.6557 80.0703 31.0083C80.5396 30.3598 80.7743 29.505 80.7743 28.4428Z" fill="white"></path>
        <path d="M95.9773 29.6012C95.9773 30.787 95.5656 31.7518 94.739 32.4966C93.8308 33.3106 92.5664 33.7171 90.9416 33.7171C89.4415 33.7171 88.2389 33.4279 87.3285 32.8486L87.846 30.9871C88.8266 31.58 89.9024 31.8775 91.0746 31.8775C91.9158 31.8775 92.5706 31.6869 93.0409 31.3076C93.5092 30.9284 93.7428 30.4193 93.7428 29.7845C93.7428 29.2188 93.5501 28.7421 93.1635 28.3556C92.779 27.969 92.1369 27.6097 91.2402 27.2776C88.7993 26.3673 87.58 25.0338 87.58 23.2801C87.58 22.1341 88.0074 21.1944 88.8632 20.4632C89.716 19.731 90.8536 19.3654 92.2762 19.3654C93.5448 19.3654 94.5987 19.5864 95.4399 20.0274L94.8815 21.8481C94.0958 21.4207 93.2075 21.207 92.2134 21.207C91.4277 21.207 90.8138 21.4008 90.3738 21.7863C90.0019 22.1309 89.8155 22.551 89.8155 23.0486C89.8155 23.5996 90.0281 24.0553 90.4555 24.4136C90.8274 24.7446 91.5031 25.1029 92.4836 25.4894C93.6831 25.9724 94.5641 26.537 95.1308 27.1844C95.6955 27.8297 95.9773 28.6374 95.9773 29.6012Z" fill="white"></path>
        <path d="M103.36 25.1346H100.898V30.0152C100.898 31.2566 101.331 31.8767 102.201 31.8767C102.6 31.8767 102.931 31.8422 103.193 31.773L103.255 33.469C102.815 33.6335 102.236 33.7163 101.518 33.7163C100.636 33.7163 99.9466 33.447 99.449 32.9096C98.9535 32.3712 98.7042 31.4682 98.7042 30.1996V25.1325H97.2376V23.4564H98.7042V21.6158L100.898 20.9537V23.4564H103.36V25.1346Z" fill="white"></path>
        <path d="M114.468 28.4022C114.468 29.9474 114.026 31.216 113.144 32.208C112.219 33.2294 110.991 33.7385 109.46 33.7385C107.985 33.7385 106.811 33.2493 105.935 32.2709C105.059 31.2925 104.622 30.0574 104.622 28.5688C104.622 27.011 105.072 25.7351 105.976 24.7431C106.878 23.75 108.095 23.2534 109.626 23.2534C111.101 23.2534 112.288 23.7426 113.183 24.7221C114.04 25.6723 114.468 26.899 114.468 28.4022ZM112.15 28.4745C112.15 27.5474 111.953 26.7523 111.551 26.0892C111.083 25.2868 110.414 24.8866 109.546 24.8866C108.648 24.8866 107.967 25.2878 107.498 26.0892C107.097 26.7533 106.899 27.561 106.899 28.5164C106.899 29.4435 107.097 30.2386 107.498 30.9007C107.981 31.7031 108.656 32.1033 109.526 32.1033C110.379 32.1033 111.048 31.6947 111.531 30.8797C111.943 30.204 112.15 29.4006 112.15 28.4745Z" fill="white"></path>
        <path d="M121.729 25.4226C121.508 25.3818 121.273 25.3608 121.025 25.3608C120.24 25.3608 119.632 25.6573 119.205 26.2513C118.833 26.775 118.646 27.4371 118.646 28.2364V33.5109H116.414L116.435 26.6242C116.435 25.4656 116.407 24.4107 116.351 23.4595H118.297L118.378 25.3828H118.44C118.676 24.7218 119.048 24.1896 119.557 23.7905C120.054 23.4312 120.592 23.2521 121.171 23.2521C121.377 23.2521 121.564 23.2667 121.729 23.2929V25.4226Z" fill="white"></path>
        <path d="M131.717 28.0091C131.717 28.4093 131.691 28.7466 131.635 29.0221H124.935C124.961 30.0152 125.285 30.7747 125.907 31.2985C126.472 31.7668 127.202 32.0014 128.099 32.0014C129.091 32.0014 129.996 31.8432 130.81 31.5258L131.16 33.0762C130.208 33.4911 129.085 33.6974 127.79 33.6974C126.231 33.6974 125.007 33.2386 124.117 32.322C123.228 31.4054 122.783 30.1745 122.783 28.6304C122.783 27.1145 123.197 25.8522 124.026 24.8455C124.893 23.7707 126.065 23.2333 127.54 23.2333C128.989 23.2333 130.086 23.7707 130.831 24.8455C131.42 25.6993 131.717 26.7552 131.717 28.0091ZM129.587 27.4298C129.602 26.7678 129.456 26.1958 129.153 25.7129C128.767 25.0917 128.173 24.7816 127.374 24.7816C126.644 24.7816 126.05 25.0843 125.596 25.6919C125.224 26.1749 125.003 26.7542 124.935 27.4288H129.587V27.4298Z" fill="white"></path>
        <path d="M50.2511 8.62032L49.6614 8.15479C50.1114 7.48751 50.7787 7.14612 51.6477 7.14612C52.2684 7.14612 52.765 7.3013 53.1064 7.62718C53.4633 7.95305 53.6495 8.37204 53.6495 8.89964C53.6495 9.24104 53.5564 9.53588 53.3857 9.79969C53.215 10.048 52.9823 10.2342 52.7029 10.3738C53.153 10.4825 53.4944 10.6997 53.7271 11.0256C53.9754 11.3515 54.084 11.7394 54.084 12.1739C54.084 12.8877 53.7892 13.4619 53.215 13.8654C52.765 14.1757 52.2529 14.3154 51.6322 14.3154C50.996 14.3154 50.4839 14.1602 50.0649 13.8343C49.6459 13.5085 49.3356 13.1205 49.1338 12.655L49.8787 12.3291C50.0183 12.7171 50.2511 13.0274 50.5615 13.2602C50.8873 13.4929 51.2443 13.6016 51.6632 13.6016C52.0822 13.6016 52.4391 13.5085 52.7185 13.3067C53.0909 13.0429 53.2771 12.6705 53.2771 12.1894C53.2771 11.2894 52.6564 10.8239 51.4305 10.8239H50.8098V10.0945H51.4305C51.8805 10.0945 52.2374 9.9859 52.4857 9.76865C52.734 9.5514 52.8426 9.27207 52.8426 8.93068C52.8426 8.63584 52.7495 8.38755 52.5633 8.20134C52.3615 7.98409 52.0512 7.87546 51.6322 7.87546C51.0736 7.87546 50.608 8.12375 50.2511 8.62032ZM58.6153 10.498V9.89279H59.3601V14.2068H58.6153V13.6016C58.2428 14.0826 57.7463 14.3309 57.1411 14.3309C56.5669 14.3309 56.0703 14.1292 55.6513 13.7257C55.2479 13.3223 55.0461 12.7636 55.0461 12.0498C55.0461 11.336 55.2479 10.7928 55.6513 10.4049C56.0548 10.0014 56.5514 9.79969 57.1411 9.79969C57.7618 9.78417 58.2584 10.0169 58.6153 10.498ZM57.2342 10.4514C56.8462 10.4514 56.5048 10.5911 56.2255 10.8704C55.9617 11.1497 55.822 11.5377 55.822 12.0343C55.822 12.5153 55.9462 12.9033 56.1945 13.2136C56.4583 13.5085 56.7997 13.6636 57.2342 13.6636C57.6687 13.6636 58.0101 13.5085 58.2739 13.1981C58.5377 12.8877 58.6618 12.4998 58.6618 12.0498C58.6618 11.5377 58.5222 11.1497 58.2273 10.8704C57.9325 10.5756 57.6066 10.4514 57.2342 10.4514ZM60.7878 14.1913V9.87727H63.3482V10.5601H61.5481V14.1913H60.7878V14.1913ZM64.838 13.5861V16.6121H64.0931V9.87727H64.838V10.4825C65.2259 10.0169 65.707 9.76865 66.3121 9.76865C66.9484 9.76865 67.4605 10.0014 67.8329 10.4514C68.2209 10.9015 68.4071 11.4291 68.4071 12.0498C68.4071 12.6705 68.2209 13.2136 67.8484 13.6481C67.476 14.0826 66.9794 14.2999 66.3432 14.2999C65.7225 14.3154 65.2104 14.0826 64.838 13.5861ZM66.2501 13.6481C66.6691 13.6481 67.0105 13.4929 67.2743 13.1981C67.5381 12.8877 67.6622 12.5153 67.6622 12.0653C67.6622 11.5687 67.5226 11.1653 67.2432 10.8859C66.9639 10.5911 66.638 10.4514 66.2501 10.4514C65.8777 10.4514 65.5363 10.5911 65.2569 10.8859C64.9621 11.1808 64.8224 11.5687 64.8224 12.0653C64.8224 12.5153 64.9466 12.9033 65.2104 13.2136C65.4587 13.5085 65.8156 13.6481 66.2501 13.6481ZM69.5244 16.6276L70.921 13.7878L68.9347 9.87727H69.7882L71.3089 12.9653L72.7055 9.87727H73.5435L70.3468 16.6121H69.5244V16.6276ZM74.8005 10.979L74.2884 10.5601C74.4591 10.3118 74.6453 10.1411 74.8315 10.0169C75.0953 9.86176 75.4212 9.78416 75.7781 9.78416C76.2126 9.78416 76.554 9.87728 76.8023 10.079C77.0506 10.2963 77.1747 10.5601 77.1747 10.9015C77.1747 11.3049 77.0195 11.5998 76.6936 11.8015C76.8954 11.848 77.0661 11.9412 77.1902 12.0808C77.3919 12.2981 77.4851 12.5619 77.4851 12.8722C77.4851 13.3378 77.2988 13.7102 76.9264 13.9895C76.616 14.2068 76.2126 14.3154 75.7005 14.3154C75.2505 14.3154 74.8625 14.1913 74.5522 13.9585C74.3194 13.7878 74.1332 13.5395 73.978 13.2136L74.6298 12.9498C74.7073 13.136 74.8315 13.3067 75.0177 13.4309C75.2039 13.5705 75.4522 13.6481 75.7315 13.6481C76.0574 13.6481 76.3057 13.5861 76.4609 13.4774C76.6626 13.3533 76.7557 13.1516 76.7557 12.8722C76.7557 12.655 76.6626 12.4843 76.4919 12.3757C76.3522 12.2826 76.104 12.236 75.7781 12.236H75.3436V11.5532H75.7005C75.9643 11.5532 76.1505 11.5222 76.2591 11.4446C76.4143 11.3515 76.4919 11.2118 76.4919 11.0566C76.4919 10.8704 76.4298 10.7152 76.3057 10.6066C76.1815 10.498 76.0108 10.4514 75.7626 10.4514C75.5453 10.4514 75.3436 10.5135 75.1729 10.6221C75.0022 10.7152 74.8936 10.8394 74.8005 10.979ZM78.6334 9.87727H79.3782V12.7171L82.3266 9.53588V14.1757H81.5818V11.3049L78.6334 14.4861V9.87727ZM86.563 10.5756H85.213V14.2068H84.4681V10.5756H83.1181V9.89279H86.563V10.5756V10.5756ZM90.5511 12.7481L91.1719 13.0895C91.0322 13.3688 90.846 13.6016 90.6442 13.7878C90.2563 14.1447 89.7752 14.3154 89.2166 14.3154C88.6424 14.3154 88.1303 14.1292 87.7114 13.7568C87.2924 13.3688 87.0906 12.8102 87.0906 12.0653C87.0906 11.4135 87.2769 10.8704 87.6493 10.4359C88.0372 10.0014 88.5338 9.78416 89.17 9.78416C89.8839 9.78416 90.427 10.048 90.7994 10.5756C91.0943 10.9946 91.2184 11.5377 91.2029 12.1894H87.851C87.851 12.6239 87.9907 12.9809 88.2545 13.2447C88.5183 13.5085 88.8442 13.6481 89.2166 13.6481C89.558 13.6481 89.8528 13.5395 90.1011 13.3378C90.3029 13.1826 90.4425 12.9809 90.5511 12.7481ZM87.8976 11.5687H90.427C90.3649 11.2273 90.2097 10.9635 89.977 10.7618C89.7442 10.5601 89.4804 10.4514 89.1545 10.4514C88.8442 10.4514 88.5648 10.5601 88.3166 10.7773C88.0993 10.979 87.9596 11.2429 87.8976 11.5687ZM94.772 9.87727H96.4014C96.7893 9.87727 97.0997 9.95486 97.3014 10.1256C97.5497 10.3273 97.6739 10.5911 97.6739 10.9325C97.6739 11.3049 97.5187 11.5998 97.2083 11.8015C97.4256 11.8636 97.5963 11.9567 97.7515 12.0963C97.9842 12.3136 98.0928 12.5929 98.0928 12.9343C98.0928 13.3533 97.9377 13.6792 97.6428 13.9119C97.3945 14.0981 97.0531 14.2068 96.6186 14.2068H94.7565V9.87727H94.772ZM95.5324 11.6463H96.3238C96.5255 11.6463 96.6807 11.5998 96.8049 11.5222C96.9445 11.4136 97.0066 11.2739 97.0066 11.0722C97.0066 10.9015 96.9445 10.7618 96.8049 10.6532C96.6962 10.5911 96.4945 10.5445 96.1997 10.5445H95.5324V11.6463ZM95.5324 13.524H96.4635C96.7893 13.524 97.0066 13.4774 97.1463 13.3843C97.317 13.2602 97.3945 13.105 97.3945 12.9033C97.3945 12.7015 97.317 12.5308 97.1773 12.4222C97.0376 12.3136 96.8204 12.267 96.51 12.267H95.5479V13.524H95.5324Z" fill="white"></path>
    </svg>