    <svg width="149" height="44" viewBox="0 0 149 44" fill="none" xmlns="http://www.w3.org/2000/svg">
        <path d="M143.351 0.879566C144.576 0.879566 145.75 1.36607 146.616 2.23206C147.482 3.09805 147.969 4.27259 147.969 5.49728V38.481C147.969 39.7057 147.482 40.8802 146.616 41.7462C145.75 42.6122 144.576 43.0987 143.351 43.0987H5.91875C4.69405 43.0987 3.51952 42.6122 2.65353 41.7462C1.78754 40.8802 1.30103 39.7057 1.30103 38.481V5.49728C1.30103 4.27259 1.78754 3.09805 2.65353 2.23206C3.51952 1.36607 4.69405 0.879566 5.91875 0.879566H143.351ZM143.351 0H5.91875C4.46078 0 3.06252 0.579176 2.03158 1.61012C1.00064 2.64106 0.421463 4.03931 0.421463 5.49728V38.481C0.421463 39.939 1.00064 41.3372 2.03158 42.3682C3.06252 43.3991 4.46078 43.9783 5.91875 43.9783H143.351C144.809 43.9783 146.207 43.3991 147.238 42.3682C148.269 41.3372 148.848 39.939 148.848 38.481V5.49728C148.848 4.03931 148.269 2.64106 147.238 1.61012C146.207 0.579176 144.809 0 143.351 0Z" fill="white"></path>
        <path d="M75.3386 23.9131C74.4154 23.9174 73.5142 24.1952 72.7486 24.7113C71.9831 25.2273 71.3876 25.9586 71.0373 26.8128C70.687 27.667 70.5976 28.6058 70.7804 29.5108C70.9632 30.4158 71.4099 31.2463 72.0643 31.8976C72.7186 32.5489 73.5513 32.9917 74.4571 33.1702C75.3629 33.3488 76.3013 33.255 77.1538 32.9007C78.0064 32.5463 78.7348 31.9474 79.2473 31.1795C79.7598 30.4116 80.0333 29.509 80.0333 28.5858C80.0423 27.9678 79.9268 27.3544 79.6938 26.782C79.4607 26.2095 79.1149 25.6899 78.6769 25.2539C78.2388 24.8179 77.7175 24.4745 77.144 24.2442C76.5705 24.0138 75.9565 23.9012 75.3386 23.9131ZM75.3386 31.4224C74.7708 31.4621 74.2043 31.3301 73.7125 31.0435C73.2207 30.7569 72.8266 30.329 72.5812 29.8155C72.3359 29.3019 72.2507 28.7264 72.3368 28.1638C72.4228 27.6011 72.6762 27.0774 73.0638 26.6607C73.4515 26.2439 73.9555 25.9535 74.5105 25.827C75.0654 25.7005 75.6456 25.744 76.1755 25.9516C76.7055 26.1592 77.1607 26.5215 77.482 26.9913C77.8034 27.461 77.9759 28.0166 77.9773 28.5858C77.995 28.9464 77.9404 29.307 77.8165 29.6461C77.6927 29.9853 77.5022 30.2962 77.2562 30.5606C77.0103 30.825 76.7139 31.0374 76.3846 31.1854C76.0553 31.3335 75.6996 31.414 75.3386 31.4224ZM65.1027 23.9131C64.179 23.9153 63.2767 24.1912 62.5097 24.7059C61.7427 25.2207 61.1455 25.9512 60.7935 26.8052C60.4416 27.6592 60.3506 28.5984 60.5321 29.5041C60.7136 30.4098 61.1596 31.2414 61.8135 31.8937C62.4674 32.5461 63.3 32.9901 64.2061 33.1695C65.1122 33.3489 66.0512 33.2557 66.9044 32.9017C67.7576 32.5477 68.4867 31.9488 68.9996 31.1807C69.5126 30.4125 69.7864 29.5095 69.7864 28.5858C69.7953 27.9678 69.6799 27.3544 69.4468 26.782C69.2138 26.2095 68.868 25.6899 68.4299 25.2539C67.9919 24.8179 67.4706 24.4745 66.8971 24.2442C66.3236 24.0138 65.7096 23.9012 65.0917 23.9131H65.1027ZM65.1027 31.4224C64.5346 31.4643 63.9671 31.3343 63.474 31.0492C62.9809 30.7641 62.585 30.3371 62.3379 29.8239C62.0909 29.3107 62.004 28.7349 62.0887 28.1717C62.1735 27.6084 62.4258 27.0837 62.8129 26.6658C63.2 26.2479 63.7039 25.9563 64.259 25.8288C64.8142 25.7014 65.3949 25.744 65.9255 25.9512C66.4561 26.1583 66.912 26.5204 67.2339 26.9903C67.5558 27.4602 67.7288 28.0162 67.7304 28.5858C67.7481 28.9464 67.6934 29.307 67.5696 29.6461C67.4457 29.9853 67.2552 30.2962 67.0093 30.5606C66.7634 30.825 66.467 31.0374 66.1377 31.1854C65.8083 31.3335 65.4527 31.414 65.0917 31.4224H65.1027ZM52.9097 25.3534V27.3324H57.6594C57.5849 28.2645 57.1974 29.1441 56.5599 29.8282C56.0847 30.3122 55.5135 30.6914 54.8829 30.9413C54.2524 31.1913 53.5765 31.3065 52.8987 31.2795C51.4991 31.2795 50.1567 30.7235 49.167 29.7337C48.1773 28.744 47.6213 27.4017 47.6213 26.0021C47.6213 24.6024 48.1773 23.2601 49.167 22.2704C50.1567 21.2807 51.4991 20.7247 52.8987 20.7247C54.2376 20.7028 55.5306 21.2129 56.4939 22.143L57.8902 20.7467C57.2399 20.0881 56.464 19.5668 55.6085 19.2137C54.7529 18.8605 53.8352 18.6827 52.9097 18.6907C51.9323 18.6526 50.9572 18.8123 50.043 19.1601C49.1288 19.5079 48.2942 20.0367 47.5892 20.7148C46.8842 21.3929 46.3233 22.2063 45.9402 23.1063C45.5571 24.0063 45.3597 24.9744 45.3597 25.9526C45.3597 26.9308 45.5571 27.8988 45.9402 28.7989C46.3233 29.6989 46.8842 30.5123 47.5892 31.1904C48.2942 31.8685 49.1288 32.3973 50.043 32.7451C50.9572 33.0929 51.9323 33.2525 52.9097 33.2145C53.8508 33.257 54.7901 33.0975 55.6643 32.7467C56.5386 32.3958 57.3276 31.8618 57.9782 31.1805C59.1301 29.9149 59.7451 28.2513 59.6934 26.5408C59.6969 26.1241 59.6601 25.708 59.5834 25.2984L52.9097 25.3534ZM102.726 26.8926C102.439 26.0491 101.903 25.3125 101.189 24.7804C100.474 24.2483 99.6144 23.9459 98.7241 23.9131C98.1227 23.9119 97.5274 24.0341 96.9751 24.2721C96.4228 24.5101 95.9252 24.8589 95.513 25.2968C95.1008 25.7347 94.7828 26.2526 94.5787 26.8183C94.3746 27.384 94.2887 27.9856 94.3263 28.5858C94.3129 29.2003 94.4235 29.8112 94.6515 30.382C94.8795 30.9528 95.2203 31.4717 95.6534 31.9079C96.0864 32.344 96.603 32.6884 97.1721 32.9205C97.7413 33.1525 98.3514 33.2675 98.966 33.2585C99.735 33.2626 100.493 33.076 101.172 32.7153C101.852 32.3545 102.431 31.831 102.858 31.1915L101.264 30.092C101.026 30.4887 100.689 30.8168 100.286 31.0442C99.8834 31.2716 99.4285 31.3906 98.966 31.3894C98.4897 31.4076 98.019 31.282 97.6151 31.0291C97.2112 30.7761 96.8927 30.4075 96.7011 29.9711L102.957 27.3874L102.726 26.8926ZM96.3493 28.4539C96.327 28.1138 96.3728 27.7727 96.4839 27.4505C96.5951 27.1284 96.7695 26.8317 96.9968 26.5777C97.2241 26.3238 97.4998 26.1178 97.8077 25.9717C98.1156 25.8257 98.4496 25.7426 98.79 25.7272C99.1447 25.7038 99.4984 25.7852 99.8072 25.9611C100.116 26.137 100.366 26.3997 100.527 26.7167L96.3493 28.4539ZM91.2698 32.9836H93.3257V19.2404H91.2698V32.9836ZM87.9054 24.9576H87.8285C87.5186 24.6111 87.139 24.3341 86.7146 24.1446C86.2902 23.9552 85.8305 23.8575 85.3657 23.8581C84.1642 23.9164 83.0311 24.4347 82.2014 25.3057C81.3717 26.1766 80.9088 27.3334 80.9088 28.5363C80.9088 29.7392 81.3717 30.896 82.2014 31.767C83.0311 32.6379 84.1642 33.1562 85.3657 33.2145C85.8316 33.2223 86.2935 33.128 86.719 32.938C87.1445 32.748 87.5232 32.4671 87.8285 32.115H87.8944V32.7857C87.8944 34.5778 86.9379 35.5344 85.3987 35.5344C84.886 35.5224 84.3885 35.3581 83.9695 35.0624C83.5505 34.7668 83.229 34.3532 83.0458 33.8742L81.2537 34.6218C81.5911 35.4424 82.1658 36.1435 82.9044 36.6352C83.6429 37.1269 84.5115 37.3867 85.3987 37.3814C87.8065 37.3814 89.7965 35.9631 89.7965 32.5109V24.188H87.9054V24.9576ZM85.5526 31.4224C84.8434 31.3599 84.1833 31.034 83.7025 30.5089C83.2217 29.9839 82.955 29.2977 82.955 28.5858C82.955 27.8738 83.2217 27.1877 83.7025 26.6627C84.1833 26.1376 84.8434 25.8117 85.5526 25.7492C85.9042 25.7672 86.2487 25.8555 86.5657 26.0087C86.8827 26.1619 87.1658 26.3771 87.3984 26.6414C87.631 26.9057 87.8083 27.214 87.9199 27.5479C88.0316 27.8818 88.0752 28.2347 88.0483 28.5858C88.0783 28.9384 88.0365 29.2934 87.9254 29.6293C87.8143 29.9653 87.6362 30.2752 87.4018 30.5404C87.1675 30.8055 86.8818 31.0204 86.5621 31.172C86.2424 31.3236 85.8952 31.4088 85.5416 31.4224H85.5526ZM112.357 19.2404H107.443V32.9836H109.499V27.7722H112.368C112.954 27.8143 113.543 27.7352 114.097 27.5399C114.651 27.3446 115.159 27.0372 115.589 26.637C116.019 26.2368 116.362 25.7522 116.596 25.2136C116.831 24.6749 116.952 24.0938 116.952 23.5063C116.952 22.9188 116.831 22.3377 116.596 21.799C116.362 21.2604 116.019 20.7758 115.589 20.3756C115.159 19.9754 114.651 19.668 114.097 19.4727C113.543 19.2774 112.954 19.1983 112.368 19.2404H112.357ZM112.357 25.8371H109.488V21.1535H112.401C113.027 21.1535 113.627 21.4019 114.069 21.8442C114.511 22.2865 114.76 22.8863 114.76 23.5118C114.76 24.1373 114.511 24.7371 114.069 25.1794C113.627 25.6217 113.027 25.8701 112.401 25.8701L112.357 25.8371ZM125.034 23.8581C124.286 23.8134 123.54 23.9883 122.89 24.3614C122.239 24.7344 121.712 25.2894 121.373 25.9581L123.198 26.7167C123.378 26.3851 123.65 26.1129 123.982 25.9333C124.314 25.7537 124.691 25.6745 125.067 25.7052C125.328 25.6747 125.593 25.6965 125.845 25.7693C126.097 25.8421 126.333 25.9645 126.538 26.1293C126.742 26.2941 126.912 26.4979 127.037 26.7291C127.162 26.9602 127.24 27.2139 127.266 27.4753V27.6183C126.606 27.2686 125.869 27.0874 125.122 27.0905C123.154 27.0905 121.164 28.19 121.164 30.18C121.183 30.6043 121.288 31.0204 121.471 31.4038C121.654 31.7871 121.912 32.1298 122.23 32.4117C122.547 32.6936 122.918 32.9089 123.321 33.0449C123.723 33.1809 124.149 33.2348 124.572 33.2035C125.09 33.2407 125.608 33.1378 126.073 32.9057C126.537 32.6735 126.93 32.3207 127.211 31.8842H127.277V32.9836H129.256V27.6952C129.256 25.2874 127.431 23.8911 125.089 23.8911L125.034 23.8581ZM124.781 31.3894C124.111 31.3894 123.176 31.0486 123.176 30.224C123.176 29.1245 124.341 28.7617 125.375 28.7617C126.028 28.7456 126.674 28.9051 127.244 29.2235C127.175 29.8187 126.894 30.3691 126.451 30.7731C126.009 31.1772 125.435 31.4078 124.836 31.4224L124.781 31.3894ZM136.468 24.188L134.116 30.147H134.05L131.609 24.188H129.41L133.071 32.5218L130.982 37.1506H133.126L138.755 24.188H136.468ZM117.987 32.9836H120.043V19.2404H117.987V32.9836Z" fill="white"></path>
        <path d="M46.7199 15.6893H45.9063V13.4903H46.599C46.9148 13.1557 47.1533 12.7557 47.2977 12.3188C47.4421 11.8819 47.4888 11.4186 47.4346 10.9616V7.69621H51.8324V13.4794H52.569V15.6783H51.7554V14.293H46.7199V15.6893ZM48.2482 10.9946C48.2995 11.8814 48.081 12.7631 47.6215 13.5233H50.9198V8.50981H48.2482V10.9946ZM59.1438 13.4354C58.501 14.0745 57.6314 14.4333 56.725 14.4333C55.8185 14.4333 54.9489 14.0745 54.3062 13.4354C53.6814 12.7741 53.3334 11.8988 53.3334 10.9891C53.3334 10.0794 53.6814 9.20409 54.3062 8.54279C54.623 8.22367 54.9998 7.97039 55.4149 7.79755C55.8301 7.62471 56.2753 7.53573 56.725 7.53573C57.1746 7.53573 57.6199 7.62471 58.035 7.79755C58.4501 7.97039 58.827 8.22367 59.1438 8.54279C59.771 9.20283 60.1207 10.0786 60.1207 10.9891C60.1207 11.8996 59.771 12.7753 59.1438 13.4354ZM54.9329 12.8856C55.4088 13.3596 56.0532 13.6258 56.725 13.6258C57.3967 13.6258 58.0411 13.3596 58.5171 12.8856C58.9868 12.3678 59.247 11.6937 59.247 10.9946C59.247 10.2954 58.9868 9.62134 58.5171 9.10352C58.0411 8.62952 57.3967 8.36339 56.725 8.36339C56.0532 8.36339 55.4088 8.62952 54.9329 9.10352C54.4631 9.62134 54.2029 10.2954 54.2029 10.9946C54.2029 11.6937 54.4631 12.3678 54.9329 12.8856ZM64.3882 14.4359C63.9343 14.4449 63.4833 14.362 63.0623 14.1921C62.6413 14.0222 62.2591 13.7689 61.9386 13.4473C61.6181 13.1258 61.366 12.7428 61.1974 12.3212C61.0289 11.8997 60.9474 11.4484 60.9579 10.9946C60.9474 10.5407 61.0289 10.0895 61.1974 9.66793C61.366 9.2464 61.6181 8.86334 61.9386 8.54182C62.2591 8.2203 62.6413 7.96697 63.0623 7.79708C63.4833 7.62719 63.9343 7.54426 64.3882 7.55328C64.8482 7.54189 65.3049 7.6349 65.7238 7.82533C66.1427 8.01575 66.5131 8.29864 66.807 8.65274L66.2133 9.22446C65.9961 8.94876 65.7161 8.72906 65.3967 8.58369C65.0773 8.43832 64.7277 8.37152 64.3772 8.38887C64.0397 8.3801 63.704 8.43988 63.3903 8.56461C63.0766 8.68934 62.7914 8.87641 62.5521 9.11451C62.0754 9.63543 61.811 10.316 61.811 11.0221C61.811 11.7282 62.0754 12.4087 62.5521 12.9296C62.7914 13.1677 63.0766 13.3548 63.3903 13.4795C63.704 13.6043 64.0397 13.664 64.3772 13.6553C64.7642 13.6518 65.1455 13.5622 65.4936 13.3929C65.8416 13.2237 66.1475 12.979 66.3892 12.6768L66.9829 13.2705C66.6837 13.6334 66.3083 13.9262 65.8834 14.128C65.4141 14.3406 64.9033 14.4458 64.3882 14.4359ZM70.4352 14.293H69.5886V8.50981H67.7415V7.69621H72.2713V8.50981H70.4352V14.293ZM78.0984 7.69621L75.6026 13.2595C75.5027 13.5886 75.3031 13.8785 75.0313 14.0892C74.7595 14.3 74.429 14.4211 74.0854 14.4359C73.8581 14.433 73.6338 14.3844 73.4257 14.293L73.6456 13.5123C73.7792 13.5901 73.9308 13.6318 74.0854 13.6333C74.247 13.6455 74.4084 13.607 74.5472 13.5233C74.6796 13.4112 74.7817 13.2675 74.844 13.1055L75.0859 12.5778L72.887 7.70721H73.8875L75.5147 11.4893L77.0979 7.69621H78.0984ZM79.0549 14.293V7.69621H83.8266V14.293H82.98V8.50981H79.9015V14.293H79.0549ZM85.3328 14.293V7.69621H86.1794V10.5218H89.4778V7.69621H90.3244V14.293H89.4778V11.3134H86.1794V14.293H85.3328ZM97.24 13.4354C96.5972 14.0745 95.7276 14.4333 94.8211 14.4333C93.9147 14.4333 93.0451 14.0745 92.4023 13.4354C91.7776 12.7741 91.4295 11.8988 91.4295 10.9891C91.4295 10.0794 91.7776 9.20409 92.4023 8.54279C92.7192 8.22367 93.096 7.97039 93.5111 7.79755C93.9262 7.62471 94.3715 7.53573 94.8211 7.53573C95.2708 7.53573 95.716 7.62471 96.1312 7.79755C96.5463 7.97039 96.9231 8.22367 97.24 8.54279C97.8672 9.20283 98.2169 10.0786 98.2169 10.9891C98.2169 11.8996 97.8672 12.7753 97.24 13.4354ZM93.029 12.8856C93.505 13.3596 94.1494 13.6258 94.8211 13.6258C95.4929 13.6258 96.1373 13.3596 96.6133 12.8856C97.083 12.3678 97.3432 11.6937 97.3432 10.9946C97.3432 10.2954 97.083 9.62134 96.6133 9.10352C96.1373 8.62952 95.4929 8.36339 94.8211 8.36339C94.1494 8.36339 93.505 8.62952 93.029 9.10352C92.5593 9.62134 92.2991 10.2954 92.2991 10.9946C92.2991 11.6937 92.5593 12.3678 93.029 12.8856ZM101.671 14.293V7.69621H104.057C104.552 7.68686 105.032 7.86787 105.398 8.20196C105.582 8.3614 105.728 8.55926 105.827 8.78155C105.926 9.00384 105.974 9.24512 105.97 9.48833C105.975 9.7814 105.89 10.0691 105.728 10.3129C105.566 10.5498 105.342 10.7365 105.079 10.8517C105.398 10.9572 105.678 11.1565 105.882 11.4234C106.093 11.6927 106.206 12.0265 106.201 12.3689C106.206 12.6224 106.156 12.8739 106.053 13.1058C105.951 13.3376 105.798 13.544 105.607 13.7102C105.224 14.0634 104.72 14.2562 104.2 14.249L101.671 14.293ZM102.517 10.5218H104.057C104.2 10.5278 104.344 10.5024 104.477 10.4473C104.61 10.3923 104.729 10.3089 104.826 10.203C104.924 10.1147 105.002 10.0077 105.057 9.88845C105.112 9.76916 105.143 9.63999 105.147 9.50866C105.151 9.37732 105.129 9.2465 105.081 9.124C105.034 9.00151 104.962 8.88984 104.87 8.79567C104.778 8.69174 104.665 8.6093 104.537 8.5542C104.41 8.4991 104.272 8.47268 104.134 8.47683H102.561L102.517 10.5218ZM102.517 13.4794H104.222C104.37 13.4844 104.519 13.4564 104.655 13.3975C104.792 13.3385 104.914 13.2501 105.013 13.1385C105.207 12.9375 105.317 12.6702 105.321 12.3909C105.321 12.0993 105.205 11.8196 104.999 11.6135C104.793 11.4073 104.513 11.2914 104.222 11.2914H102.55L102.517 13.4794Z" fill="white"></path>
        <path fill-rule="evenodd" clip-rule="evenodd" d="M56.725 7.64567C56.2898 7.64567 55.8589 7.73179 55.4572 7.89905C55.0559 8.06614 54.6915 8.31091 54.3852 8.61929C53.7803 9.26006 53.4433 10.1079 53.4433 10.9891C53.4433 11.8702 53.7802 12.7179 54.3849 13.3586C55.0069 13.9765 55.8481 14.3234 56.725 14.3234C57.6018 14.3234 58.4431 13.9765 59.0651 13.3585C59.6723 12.7191 60.0108 11.8709 60.0108 10.9891C60.0108 10.1072 59.6722 9.2589 59.0649 8.6194C58.7585 8.31097 58.3941 8.06616 57.9928 7.89905C57.591 7.73179 57.1601 7.64567 56.725 7.64567ZM55.3727 7.69605C55.8012 7.51763 56.2608 7.42578 56.725 7.42578C57.1892 7.42578 57.6487 7.51763 58.0773 7.69605C58.5058 7.87446 58.8948 8.13592 59.2218 8.46533L59.2235 8.46704C59.8701 9.14751 60.2307 10.0504 60.2307 10.9891C60.2307 11.9278 59.8701 12.8306 59.2235 13.5111L59.2213 13.5134C58.558 14.173 57.6605 14.5433 56.725 14.5433C55.7895 14.5433 54.892 14.173 54.2286 13.5133L54.2262 13.5109C53.5822 12.8292 53.2234 11.9269 53.2234 10.9891C53.2234 10.0513 53.5822 9.149 54.2262 8.46729L54.2281 8.46531C54.5551 8.13589 54.9442 7.87446 55.3727 7.69605ZM94.8212 7.64567C94.386 7.64567 93.9551 7.73179 93.5534 7.89905C93.1521 8.06613 92.7878 8.31088 92.4814 8.61923C91.8765 9.26001 91.5395 10.1079 91.5395 10.9891C91.5395 11.8702 91.8764 12.7179 92.4811 13.3586C93.1031 13.9765 93.9443 14.3234 94.8212 14.3234C95.6981 14.3234 96.5393 13.9765 97.1614 13.3585C97.7685 12.719 98.107 11.8709 98.107 10.9891C98.107 10.1072 97.7684 9.25893 97.1611 8.61943C96.8547 8.31099 96.4903 8.06616 96.0889 7.89905C95.6872 7.73179 95.2563 7.64567 94.8212 7.64567ZM93.4688 7.69605C93.8974 7.51763 94.357 7.42578 94.8212 7.42578C95.2853 7.42578 95.7449 7.51763 96.1734 7.69605C96.602 7.87446 96.991 8.13592 97.318 8.46533L97.3197 8.46704C97.9663 9.14753 98.3269 10.0504 98.3269 10.9891C98.3269 11.9278 97.9663 12.8306 97.3197 13.5111L97.3175 13.5134C96.6542 14.173 95.7567 14.5433 94.8212 14.5433C93.8856 14.5433 92.9882 14.173 92.3248 13.5133L92.3224 13.5109C91.6784 12.8292 91.3196 11.9269 91.3196 10.9891C91.3196 10.0513 91.6784 9.149 92.3224 8.46729L92.3243 8.46531C92.6513 8.13589 93.0403 7.87447 93.4688 7.69605ZM65.6783 7.92542C65.2745 7.74187 64.8343 7.65222 64.3909 7.6632L64.386 7.66332C63.9469 7.65459 63.5107 7.7347 63.1034 7.89903C62.6962 8.06337 62.3265 8.30842 62.0164 8.61944C61.7064 8.93045 61.4626 9.30099 61.2995 9.70874C61.1365 10.1165 61.0577 10.553 61.0678 10.992L61.0679 10.9971C61.0578 11.4361 61.1365 11.8727 61.2995 12.2804C61.4626 12.6882 61.7064 13.0587 62.0164 13.3697C62.3265 13.6807 62.6962 13.9258 63.1034 14.0901C63.5107 14.2545 63.9469 14.3347 64.386 14.326L64.3882 14.4359L64.3903 14.326C64.8887 14.3355 65.383 14.2338 65.8371 14.0283C66.2171 13.8477 66.5559 13.5917 66.8334 13.2764L66.3964 12.8394C66.1581 13.1114 65.8676 13.3333 65.5417 13.4918C65.1792 13.6681 64.7821 13.7615 64.3791 13.7652C64.0271 13.7742 63.6769 13.7118 63.3496 13.5817C63.0221 13.4515 62.7244 13.2562 62.4746 13.0076L62.4709 13.0039C61.9757 12.4627 61.7011 11.7557 61.7011 11.0221C61.7011 10.2885 61.9757 9.58148 62.471 9.04029L62.4745 9.03648C62.7243 8.78789 63.0221 8.59266 63.3496 8.46244C63.6759 8.33273 64.025 8.27029 64.3759 8.27886C64.7426 8.26137 65.1081 8.33156 65.4423 8.48362C65.7408 8.6195 66.0066 8.81724 66.2222 9.06323L66.6559 8.64561C66.384 8.34032 66.0511 8.09488 65.6783 7.92542ZM64.3882 14.5458C63.9202 14.5549 63.4552 14.4692 63.0212 14.294C62.5864 14.1186 62.1917 13.857 61.8607 13.525C61.5297 13.1929 61.2694 12.7974 61.0953 12.3621C60.9216 11.9275 60.8374 11.4624 60.8479 10.9946C60.8374 10.5268 60.9216 10.0616 61.0953 9.62711C61.2694 9.1918 61.5297 8.79623 61.8607 8.4642C62.1917 8.13217 62.5864 7.87056 63.0212 7.69512C63.4551 7.51999 63.92 7.43434 64.3879 7.44331C64.8637 7.4319 65.336 7.52827 65.7693 7.72524C66.2034 7.92254 66.5871 8.21564 66.8916 8.58252L66.9568 8.6611L66.2021 9.38789L66.1269 9.29249C65.9206 9.03058 65.6546 8.82186 65.3512 8.68376C65.0477 8.54566 64.7156 8.4822 64.3826 8.49868L64.3743 8.49909C64.0517 8.49071 63.7308 8.54754 63.4309 8.66678C63.1318 8.78569 62.8599 8.96389 62.6315 9.19064C62.1744 9.69104 61.921 10.3443 61.921 11.0221C61.921 11.6998 62.1744 12.3531 62.6315 12.8535C62.8599 13.0802 63.1318 13.2584 63.4309 13.3774C63.7308 13.4966 64.0517 13.5537 64.3743 13.5454L64.3762 13.5453C64.7469 13.542 65.1121 13.4562 65.4455 13.2941C65.7788 13.132 66.0719 12.8976 66.3033 12.6081L66.3801 12.5121L67.1313 13.2633L67.0677 13.3404C66.7583 13.7158 66.3701 14.0186 65.9306 14.2273L65.9288 14.2282C65.4453 14.4472 64.919 14.5557 64.3882 14.5458ZM105.324 8.28315C104.979 7.96805 104.526 7.79731 104.059 7.80614L104.057 7.80616H101.781V14.1811L104.198 14.139L104.201 14.139C104.694 14.1459 105.17 13.9635 105.532 13.6294L105.535 13.6272C105.714 13.4715 105.857 13.2783 105.953 13.0613C106.049 12.8442 106.096 12.6087 106.091 12.3713L106.091 12.3673C106.095 12.05 105.991 11.7408 105.795 11.4912L105.794 11.4901C105.604 11.2408 105.342 11.0547 105.045 10.956L104.773 10.866L105.035 10.751C105.278 10.6442 105.487 10.4711 105.637 10.2515C105.787 10.0264 105.864 9.76081 105.86 9.49026V9.48617C105.864 9.25907 105.819 9.03377 105.726 8.8262C105.634 8.61864 105.497 8.43388 105.326 8.285L105.324 8.28315ZM105.471 8.11988C105.085 7.76761 104.578 7.57666 104.056 7.58627H101.561V14.4048L104.198 14.3589L104.2 14.3589C104.747 14.3661 105.277 14.1633 105.68 13.7922C105.883 13.6155 106.045 13.3964 106.154 13.1503C106.263 12.9043 106.316 12.6374 106.31 12.3685L106.31 12.3705L106.201 12.3689L106.31 12.3665L106.31 12.3685C106.316 12.0019 106.195 11.6446 105.969 11.356C105.8 11.1362 105.584 10.9595 105.338 10.8387C105.527 10.7192 105.691 10.5616 105.819 10.3748L105.819 10.3739C105.994 10.112 106.085 9.80315 106.08 9.48841L106.08 9.49048L105.97 9.48833L106.08 9.48639L106.08 9.48841C106.084 9.2298 106.032 8.97327 105.927 8.7369C105.822 8.50033 105.666 8.28971 105.471 8.11988ZM47.3246 7.58627H51.9423V13.3694H52.679V15.7882H51.6455V14.4029H46.8299V15.7992H45.7964V13.3804H46.5511C46.84 13.0646 47.0589 12.6911 47.1933 12.2843C47.3326 11.8626 47.3777 11.4155 47.3254 10.9746L47.3246 10.9681V7.58627ZM47.5445 7.80616V10.9552C47.5994 11.426 47.5508 11.9032 47.4021 12.3533C47.2527 12.8055 47.0058 13.2194 46.6789 13.5658L46.6464 13.6003H46.0163V15.5793H46.61V14.183H51.8654V15.5683H52.4591V13.5893H51.7224V7.80616H47.5445ZM67.6316 7.58627H72.3812V8.61976H70.5451V14.4029H69.4787V8.61976H67.6316V7.58627ZM67.8515 7.80616V8.39986H69.6986V14.183H70.3253V8.39986H72.1613V7.80616H67.8515ZM77.0247 7.58627H78.2682L75.7058 13.2982C75.5986 13.6463 75.3866 13.9529 75.0987 14.1761C74.8089 14.4008 74.4565 14.53 74.0901 14.5457L74.084 14.546C73.842 14.5429 73.6031 14.491 73.3815 14.3936L73.294 14.3552L73.5783 13.3459L73.7009 13.4173C73.8181 13.4855 73.9509 13.5221 74.0864 13.5233L74.0937 13.5234C74.2296 13.5336 74.3654 13.5024 74.4829 13.4336C74.598 13.3343 74.6868 13.208 74.7414 13.0661L74.7439 13.0596L74.9651 12.5775L72.7167 7.59726H73.9599L75.5132 11.2076L77.0247 7.58627ZM77.1712 7.80616L75.5162 11.7711L73.8151 7.81715H73.0573L75.2067 12.5781L74.9454 13.1483C74.8763 13.3262 74.7638 13.484 74.6182 13.6072L74.6115 13.6129L74.6039 13.6175C74.4467 13.7123 74.2639 13.7562 74.0808 13.7432C73.9551 13.7415 73.8313 13.7163 73.7157 13.6691L73.5582 14.228C73.7264 14.2901 73.9041 14.3233 74.0837 14.3259C74.4035 14.3115 74.711 14.1985 74.964 14.0023C75.2177 13.8056 75.4042 13.5348 75.4974 13.2275L75.4995 13.2208L77.9286 7.80616H77.1712ZM78.945 7.58627H83.9365V14.4029H82.87V8.61976H80.0115V14.4029H78.945V7.58627ZM79.1649 7.80616V14.183H79.7916V8.39986H83.0899V14.183H83.7166V7.80616H79.1649ZM85.2229 7.58627H86.2894V10.4119H89.3678V7.58627H90.4343V14.4029H89.3678V11.4234H86.2894V14.4029H85.2229V7.58627ZM85.4428 7.80616V14.183H86.0695V11.2035H89.5877V14.183H90.2144V7.80616H89.5877V10.6318H86.0695V7.80616H85.4428ZM54.8553 9.02561C55.3519 8.53109 56.0241 8.25345 56.725 8.25345C57.4258 8.25345 58.0981 8.53109 58.5947 9.02561L58.5986 9.02955C59.0867 9.5676 59.357 10.2681 59.357 10.9946C59.357 11.721 59.0866 12.4215 58.5985 12.9595L58.5948 12.9637C58.0982 13.4582 57.4258 13.7357 56.725 13.7357C56.0241 13.7357 55.3519 13.4581 54.8553 12.9636L54.9329 12.8856L54.8514 12.9595C54.3633 12.4215 54.093 11.721 54.093 10.9946C54.093 10.2681 54.3633 9.5677 54.8514 9.02965L54.8553 9.02561ZM55.0124 12.8097C55.4676 13.262 56.0832 13.5158 56.725 13.5158C57.3667 13.5158 57.9823 13.262 58.4375 12.8097C58.8877 12.3124 59.1371 11.6655 59.1371 10.9946C59.1371 10.3237 58.8877 9.67678 58.4375 9.17946C57.9823 8.72721 57.3667 8.47334 56.725 8.47334C56.0832 8.47334 55.4676 8.72721 55.0124 9.17946C54.5622 9.67678 54.3129 10.3237 54.3129 10.9946C54.3129 11.6655 54.5622 12.3124 55.0124 12.8097ZM92.9515 9.02561C93.4481 8.53109 94.1203 8.25345 94.8212 8.25345C95.522 8.25345 96.1943 8.53109 96.6908 9.02561L96.6948 9.02955C97.1829 9.5676 97.4531 10.2681 97.4531 10.9946C97.4531 11.721 97.1828 12.4215 96.6947 12.9595L96.6909 12.9637C96.1944 13.4582 95.522 13.7357 94.8212 13.7357C94.1203 13.7357 93.4481 13.4581 92.9515 12.9636L93.029 12.8856L92.9476 12.9595C92.4595 12.4215 92.1892 11.721 92.1892 10.9946C92.1892 10.2681 92.4595 9.5677 92.9476 9.02965L92.9515 9.02561ZM93.1086 12.8097C93.5638 13.262 94.1794 13.5158 94.8212 13.5158C95.4629 13.5158 96.0785 13.262 96.5337 12.8097C96.9839 12.3124 97.2332 11.6655 97.2332 10.9946C97.2332 10.3237 96.9839 9.67677 96.5337 9.17945C96.0785 8.7272 95.4629 8.47334 94.8212 8.47334C94.1794 8.47334 93.5638 8.7272 93.1086 9.17945C92.6584 9.67677 92.4091 10.3237 92.4091 10.9946C92.4091 11.6655 92.6584 12.3124 93.1086 12.8097ZM104.132 8.36688C104.286 8.36252 104.439 8.39201 104.581 8.4533C104.722 8.51447 104.849 8.60582 104.951 8.72093C105.052 8.82528 105.131 8.9488 105.184 9.08422C105.236 9.22048 105.261 9.36599 105.257 9.51209C105.252 9.65818 105.218 9.80186 105.157 9.93456C105.096 10.0657 105.01 10.1835 104.904 10.2811C104.796 10.397 104.665 10.4884 104.519 10.5489C104.372 10.6098 104.213 10.6381 104.054 10.6318H102.405L102.454 8.36688H104.132ZM104.494 8.6551C104.381 8.6064 104.259 8.58306 104.137 8.58672L104.134 8.58677H102.669L102.63 10.4119H104.061C104.189 10.4172 104.316 10.3947 104.435 10.3458C104.553 10.2968 104.659 10.2227 104.745 10.1286L104.749 10.1249L104.752 10.1215C104.839 10.0432 104.909 9.94823 104.957 9.84234C105.006 9.73646 105.033 9.62181 105.037 9.50522C105.041 9.38864 105.021 9.27252 104.979 9.16379C104.936 9.05505 104.873 8.95594 104.791 8.87235L104.788 8.86857C104.707 8.77673 104.606 8.70379 104.494 8.6551ZM48.1382 8.39986H51.0298V13.6333H47.4266L47.5274 13.4665C47.9754 12.7252 48.1884 11.8656 48.1384 11.0009L48.138 10.9946L48.1382 8.39986ZM48.3581 8.61976V10.9914C48.4063 11.8352 48.2163 12.6743 47.8116 13.4134H50.8099V8.61976H48.3581ZM102.442 11.1815H104.222C104.542 11.1815 104.85 11.3089 105.077 11.5357C105.303 11.7625 105.431 12.0701 105.431 12.3909L105.431 12.3924C105.427 12.6989 105.306 12.9922 105.094 13.2132C104.985 13.3361 104.85 13.4335 104.699 13.4985C104.548 13.5635 104.384 13.5945 104.22 13.5893H102.406L102.442 11.1815ZM102.659 11.4014L102.629 13.3694H104.225C104.358 13.3739 104.49 13.349 104.612 13.2965C104.734 13.244 104.843 13.1652 104.931 13.0657L104.934 13.0621C105.108 12.8814 105.207 12.6412 105.211 12.3901C105.211 12.1279 105.107 11.8766 104.921 11.6912C104.736 11.5056 104.484 11.4014 104.222 11.4014H102.659Z" fill="white"></path>
        <path d="M12.0157 35.9504L25.4846 21.9805L12.0269 8.03552C11.6675 8.25263 11.4451 8.75532 11.4451 9.41332V34.586C11.4499 35.244 11.6643 35.71 12.0157 35.9504Z" fill="white"></path>
        <path d="M25.9671 21.5947L29.9791 17.433L13.641 8.14082C13.3658 7.97502 13.0533 7.88744 12.7351 7.88696L25.9655 21.5931L25.9671 21.5947Z" fill="white"></path>
        <path d="M25.9671 22.3679L12.6947 36.1342C13.0278 36.1399 13.356 36.0497 13.6425 35.8736L30.0129 26.5564L25.9671 22.3679Z" fill="white"></path>
        <path d="M35.8979 20.8047L30.461 17.7068L26.3394 21.9821L30.4916 26.2842L35.8963 23.1946C37.0456 22.5383 37.0455 21.4577 35.8979 20.8047Z" fill="white"></path>
    </svg>