    <svg width="150" height="44" viewBox="0 0  128 38" fill="none" xmlns="http://www.w3.org/2000/svg">
        <defs>
<style>
.cls-t {
fill: white;
}
</style>
</defs>
<g>
<g>
<path class="cls-t" d="M42.86,9.86a2.6,2.6,0,0,1,2.63-2.77,2.51,2.51,0,0,1,1.81.73l-.51.5a1.92,1.92,0,0,0-1.31-.52,1.88,1.88,0,0,0-1.8,2.06,1.84,1.84,0,0,0,3.11,1.55l.51.5a2.47,2.47,0,0,1-1.81.73A2.6,2.6,0,0,1,42.86,9.86Z"></path>
<path class="cls-t" d="M48.06,8.76h.75V10.3h.46l1.19-1.54h.84l-1.37,1.75,1.61,2h-.93l-1.28-1.63h-.52v1.63h-.75Z"></path>
<path class="cls-t" d="M51.75,11.41c0-.62.47-1.23,1.67-1.23a5.64,5.64,0,0,1,.77.07v-.19a.72.72,0,0,0-.8-.73,1.75,1.75,0,0,0-1,.33l-.47-.48a2.44,2.44,0,0,1,1.5-.51A1.35,1.35,0,0,1,55,10.06v2.49h-.74v-.41h0a1.36,1.36,0,0,1-1.11.5A1.25,1.25,0,0,1,51.75,11.41ZM54.19,11v-.19a5.57,5.57,0,0,0-.66-.05c-.66,0-1,.24-1,.63s.24.6.73.6A.94.94,0,0,0,54.19,11Z"></path>
<path class="cls-t" d="M58.16,10.89h0a1.75,1.75,0,0,1-1,.33A1.23,1.23,0,0,1,55.79,10V8.76h.75v1a.68.68,0,0,0,.77.76,1.52,1.52,0,0,0,.85-.3V8.76h.76v3.79h-.76Z"></path>
<path class="cls-t" d="M59.79,11.41c0-.62.47-1.23,1.67-1.23a5.64,5.64,0,0,1,.77.07v-.19a.72.72,0,0,0-.8-.73,1.72,1.72,0,0,0-1,.33L60,9.18a2.42,2.42,0,0,1,1.5-.51A1.34,1.34,0,0,1,63,10.06v2.49h-.73v-.41h0a1.38,1.38,0,0,1-1.11.5A1.25,1.25,0,0,1,59.79,11.41ZM62.23,11v-.19a5.57,5.57,0,0,0-.66-.05c-.66,0-1,.24-1,.63s.24.6.72.6A.94.94,0,0,0,62.23,11Z"></path>
<path class="cls-t" d="M64.11,8.76h.75v2.59h0l1.77-2.59h.68v3.79h-.75V10h0l-1.77,2.59h-.68Zm.38-1.09.43-.42a1.19,1.19,0,0,0,.81.38,1.22,1.22,0,0,0,.82-.38l.43.42a1.57,1.57,0,0,1-1.25.6A1.53,1.53,0,0,1,64.49,7.67Z"></path>
<path class="cls-t" d="M69.18,9.38H68V8.76h3.16L71,9.38h-1v3.17h-.75Z"></path>
<path class="cls-t" d="M71.39,10.66a1.86,1.86,0,0,1,1.82-2c1,0,1.83.67,1.83,2.12v.11H72.17A1.18,1.18,0,0,0,73.37,12a1.51,1.51,0,0,0,1-.37l.48.47a2.17,2.17,0,0,1-1.52.57A1.88,1.88,0,0,1,71.39,10.66Zm2.84-.33a1,1,0,0,0-1-1,1.08,1.08,0,0,0-1.06,1Z"></path>
<path class="cls-t" d="M77.8,8.76h.76v2.59h0l1.77-2.59H81v3.79h-.75V10h0l-1.76,2.59H77.8Z"></path>
<path class="cls-t" d="M81.8,12.11l.47-.47a1.36,1.36,0,0,0,1,.36c.51,0,.79-.26.79-.55s-.2-.55-.75-.55h-.57v-.6h.57c.39,0,.66-.17.66-.5s-.31-.5-.69-.5a1.38,1.38,0,0,0-1,.36l-.47-.47a2.23,2.23,0,0,1,1.51-.52c.78,0,1.35.41,1.35,1a.88.88,0,0,1-.57.83v0a.92.92,0,0,1,.68.87c0,.75-.64,1.22-1.54,1.22A2,2,0,0,1,81.8,12.11Z"></path>
</g>
<path class="cls-t" d="M24.71,13.49a1.8,1.8,0,0,0-.27-1,2.1,2.1,0,0,1,.27,1Z"></path>
<polygon class="cls-t" points="24.71 24.18 24.76 24.19 24.71 24.17 24.71 24.18"></polygon>
<path class="cls-t" d="M30.23,8.38,22.5,6.54a2,2,0,0,0-2.58,1.84v2.25L15.14,9.49a2,2,0,0,0-2.58,1.84v2.24L7.77,12.43a2,2,0,0,0-2.58,1.84V27.16A2.34,2.34,0,0,0,7,29.37l7.74,1.84a2,2,0,0,0,2.58-1.84V16.8A2.3,2.3,0,0,0,16.24,15a4.6,4.6,0,0,1,.72.31,2.46,2.46,0,0,1,1.49,2.27l.37,9.94,3.31.79a2,2,0,0,0,2.58-1.85V24.18h0V13.54a2.1,2.1,0,0,0-.27-1,3.56,3.56,0,0,0-.77-.78l-.06-.06a2.75,2.75,0,0,1,2.21,2.57l.36,10.31,3.32.79a2,2,0,0,0,2.58-1.84V10.59A2.34,2.34,0,0,0,30.23,8.38Z"></path>
<g>
<path class="cls-t" d="M52.19,20.92c0-2.43-1.94-4.12-4.85-4.12H42.5V30.12h2.18V25.28h1.69L50,30.12h2.66L48.79,25A4.16,4.16,0,0,0,52.19,20.92ZM44.68,23.1V18.74h2.66a2.19,2.19,0,1,1,0,4.36Z"></path>
<path class="cls-t" d="M60.66,25.76a2.19,2.19,0,1,1-4.36,0V20.19H54.12V26c0,2.42,1.46,4.12,3.64,4.12a3.68,3.68,0,0,0,2.9-1.7l.49,1.46h1.69V20.19H60.66Z"></path>
<path class="cls-t" d="M69.63,18.25A2.64,2.64,0,0,1,72.05,20l2.18-.25a4.74,4.74,0,0,0-4.85-3.39C67,16.31,65,17.77,65,20.19c0,2.66,2.18,3.39,4.12,4.12,1.45.48,2.67,1,2.67,2.18,0,1-1,1.69-2.18,1.69-1.46,0-2.18-.72-2.91-1.94l-2.18.49a5.35,5.35,0,0,0,5.09,3.39c2.42,0,4.6-1.45,4.6-3.88,0-2.66-2.18-3.39-4.12-4.11-1.45-.49-2.66-1-2.66-2.18C67.45,19,68.41,18.25,69.63,18.25Z"></path>
<path class="cls-t" d="M80.28,28.18c-.72,0-1.21-.24-1.21-1.21V22.13H82V20.19H79.07V17.28H77.38l-.49,2.91H75.2v1.94h1.69V27c0,1.94,1.21,2.91,3.39,2.91h1.94l.24-1.94H80.28Z"></path>
<path class="cls-t" d="M88.52,20A5.09,5.09,0,1,0,93.85,25,5,5,0,0,0,88.52,20Zm0,8.23A2.87,2.87,0,0,1,85.61,25a2.92,2.92,0,1,1,5.82,0A2.65,2.65,0,0,1,88.52,28.18Z"></path>
<path class="cls-t" d="M100.39,20.19a2.62,2.62,0,0,0-2.67,1.45l-.48-1.45h-1.7v9.69H98V24.31a1.78,1.78,0,0,1,1.93-1.94h1.22l-.25-2.18Z"></path>
<path class="cls-t" d="M106.93,28.18A2.71,2.71,0,0,1,104,25.76h8a.87.87,0,0,1-.25-.73,5.09,5.09,0,1,0-5.08,5.09,5.33,5.33,0,0,0,4.84-2.91L109.59,27A3.1,3.1,0,0,1,106.93,28.18Zm-.24-6.3a2.63,2.63,0,0,1,2.66,2.18h-5.57A3,3,0,0,1,106.69,21.88Z"></path>
</g>
<path class="cls-t" d="M118.51,37H4.49A4.5,4.5,0,0,1,0,32.5v-28A4.5,4.5,0,0,1,4.49,0h114A4.5,4.5,0,0,1,123,4.49v28A4.5,4.5,0,0,1,118.51,37ZM4.49.87A3.62,3.62,0,0,0,.87,4.49v28a3.63,3.63,0,0,0,3.62,3.63h114a3.63,3.63,0,0,0,3.62-3.63v-28A3.62,3.62,0,0,0,118.51.87Z"></path>
</g>
</svg>