<svg width="56" height="56" viewBox="0 0 56 56" fill="none" xmlns="http://www.w3.org/2000/svg">
<path d="M14.0251 31.3001H14.0231C13.3515 31.2974 12.686 31.4273 12.0647 31.6824C11.4434 31.9375 10.8786 32.3127 10.4026 32.7865C9.92662 33.2604 9.54887 33.8235 9.29101 34.4436C9.03317 35.0637 8.90026 35.7286 8.8999 36.4001L14.0251 31.3001ZM14.0251 31.3001H41.9999C43.3525 31.3001 44.6497 31.8374 45.6061 32.7939C46.5626 33.7503 47.0999 35.0475 47.0999 36.4001C47.0999 40.9408 44.8729 44.3663 41.3532 46.61C37.8693 48.8303 33.1341 49.9001 27.9999 49.9001C22.8658 49.9001 18.1308 48.8304 14.6469 46.6102M14.0251 31.3001L14.6469 46.6102M14.6469 46.6102C11.1268 44.3635 8.89998 40.9435 8.8999 36.4003L14.6469 46.6102ZM20.4339 9.23406C22.4405 7.22742 25.1621 6.1001 27.9999 6.1001C30.8377 6.1001 33.5593 7.22742 35.5659 9.23406C37.5726 11.2407 38.6999 13.9623 38.6999 16.8001C38.6999 19.6379 37.5726 22.3595 35.5659 24.3661C33.5593 26.3728 30.8377 27.5001 27.9999 27.5001C25.1621 27.5001 22.4405 26.3728 20.4339 24.3661C18.4272 22.3595 17.2999 19.6379 17.2999 16.8001C17.2999 13.9623 18.4272 11.2407 20.4339 9.23406Z" stroke="#6B7276"/>
</svg>
