<svg width="452" height="175" viewBox="0 0 452 175" fill="white" xmlns="http://www.w3.org/2000/svg">
<g clip-path="url(#clip0_387_226)">
<path d="M0.5 126.48V95.29C1.01 99.12 2.44 103.07 4.8 107.16C7.16 111.24 10.13 114.31 13.7 116.35C12.04 115.58 10.73 115.08 9.78 114.82C8.82 114.57 7.68 114.6 6.34 114.92C5 115.24 3.85 116.36 2.9 118.27C1.94 120.16 1.14 122.91 0.5 126.48ZM35.71 82.66C31.37 81.64 27.42 80.43 23.84 79.03C20.26 77.63 16.6 75.75 12.84 73.39C9.08 71.03 6.21 68 4.23 64.3C2.25 60.6 1.33 56.46 1.46 51.86C1.71 45.1 4.52 39.49 9.88 35.02C15.24 30.56 23.27 28.26 33.99 28.13C35.65 28.01 38.01 28.07 41.07 28.32C20.79 27.55 10.52 34.25 10.26 48.41C10 53.52 12.01 57.88 16.29 61.52C20.56 65.16 27.87 68.06 38.2 70.23C42.53 71.25 46.55 72.46 50.26 73.87C53.96 75.27 57.78 77.16 61.74 79.51C65.69 81.87 68.75 84.93 70.92 88.7C73.09 92.46 74.04 96.71 73.79 101.43C73.53 108.19 70.5 114 64.7 118.84C58.89 123.69 50.64 126.17 39.92 126.3C37.11 126.3 34.56 126.11 32.26 125.73C42.85 126.88 50.85 125.25 56.28 120.85C61.7 116.45 64.48 110.93 64.6 104.3C64.86 93.95 55.23 86.74 35.71 82.66ZM69.96 25.63V58.35C69.45 54.65 68.01 50.57 65.65 46.1C63.29 41.64 60.39 38.19 56.94 35.77C58.21 36.41 59.24 36.85 60 37.11C60.77 37.37 61.72 37.46 62.87 37.4C64.02 37.34 64.97 36.95 65.74 36.25C66.51 35.55 67.27 34.31 68.04 32.52C68.81 30.74 69.45 28.44 69.96 25.63Z" fill="#FFF"/>
<path d="M39.92 126.78C37.08 126.78 34.48 126.58 32.18 126.2L32.32 125.21C42.72 126.34 50.68 124.73 55.97 120.44C61.25 116.16 63.99 110.71 64.11 104.27C64.36 94.26 54.77 87.15 35.62 83.15H35.61C31.27 82.13 27.26 80.9 23.68 79.49C20.08 78.07 16.35 76.16 12.6 73.8C8.78 71.4 5.82 68.28 3.81 64.52C1.8 60.76 0.85 56.49 0.98 51.83C1.24 44.95 4.13 39.16 9.58 34.62C15.01 30.1 23.22 27.74 34 27.62C35.65 27.49 38.06 27.56 41.13 27.81L41.07 28.81C29.32 28.36 20.89 30.48 16.01 35.09C12.64 38.28 10.88 42.76 10.78 48.41C10.53 53.34 12.5 57.62 16.63 61.13C20.82 64.7 28.12 67.59 38.32 69.73C42.67 70.76 46.75 71.99 50.45 73.39C54.15 74.79 58.04 76.71 62.01 79.07C66.02 81.47 69.17 84.62 71.37 88.43C73.58 92.26 74.57 96.63 74.31 101.43C74.05 108.3 70.93 114.28 65.04 119.2C59.15 124.11 50.71 126.66 39.92 126.78ZM35.82 82.17C55.51 86.29 65.36 93.74 65.1 104.29C64.97 111.04 62.11 116.74 56.59 121.22C54.72 122.74 52.53 123.94 50.04 124.81C55.86 123.67 60.66 121.54 64.37 118.44C70.03 113.71 73.03 107.98 73.28 101.39C73.53 96.78 72.58 92.59 70.48 88.93C68.36 85.26 65.33 82.23 61.47 79.92C57.55 77.58 53.72 75.7 50.07 74.31C46.41 72.92 42.38 71.71 38.08 70.69C27.73 68.52 20.28 65.55 15.96 61.88C11.58 58.16 9.5 53.61 9.76 48.37C9.87 42.45 11.73 37.74 15.3 34.36C17.59 32.19 20.63 30.55 24.37 29.45C18.45 30.48 13.7 32.47 10.19 35.39C4.97 39.74 2.2 45.28 1.95 51.86C1.83 56.34 2.74 60.44 4.66 64.04C6.59 67.65 9.42 70.64 13.1 72.94C16.8 75.26 20.48 77.15 24.02 78.54C27.56 79.95 31.53 81.16 35.82 82.17ZM0.99 126.56L0 126.48V95.29L1 95.22C1.49 98.96 2.92 102.89 5.24 106.9C7.54 110.89 10.48 113.91 13.96 115.9L13.5 116.79C11.88 116.04 10.58 115.54 9.65 115.29C8.78 115.06 7.7 115.09 6.45 115.39C5.27 115.67 4.22 116.71 3.34 118.47C2.41 120.34 1.62 123.06 0.99 126.56ZM1 99.84V121.94C1.43 120.39 1.92 119.08 2.44 118.02C3.46 115.98 4.73 114.76 6.22 114.41C7.63 114.07 8.87 114.04 9.91 114.32C9.95 114.33 10 114.34 10.04 114.36C7.87 112.5 5.97 110.17 4.37 107.4C2.89 104.84 1.76 102.31 1 99.84ZM69.46 58.42C68.96 54.8 67.53 50.73 65.21 46.34C62.9 41.97 60.02 38.55 56.66 36.18L57.17 35.32C58.39 35.94 59.4 36.38 60.17 36.63C60.87 36.87 61.77 36.95 62.85 36.89C63.89 36.83 64.73 36.5 65.41 35.87C66.12 35.22 66.85 34.02 67.59 32.31C68.34 30.56 68.97 28.28 69.47 25.53L70.46 25.62V58.34L69.46 58.42ZM60 37.64C62.32 39.85 64.37 42.61 66.1 45.88C67.57 48.67 68.7 51.34 69.46 53.86V30.01C69.17 31.01 68.85 31.92 68.51 32.72C67.71 34.59 66.92 35.87 66.09 36.62C65.24 37.4 64.17 37.83 62.91 37.9C61.77 37.97 60.79 37.88 60 37.64Z" fill="#FFF"/>
<path d="M122.96 123.03C117.48 122.4 113.07 120.45 109.76 117.2C106.44 113.95 104.78 110.09 104.78 105.62V101.99C104.78 95.1 107.21 89.74 112.05 85.91C116.9 82.08 123.22 80.81 131 82.08C120.28 79.54 111.03 80.36 103.25 84.57C95.4701 88.78 91.5801 95.35 91.5801 104.28C91.5801 109.26 93.1401 113.63 96.2701 117.39C99.3901 121.15 103.32 123.8 108.04 125.33C112.76 126.86 118.21 127.15 124.4 126.19C130.58 125.24 136.42 122.84 141.91 119.02C134.76 122.33 128.45 123.68 122.96 123.03Z" fill="#FFF"/>
<path d="M176.97 124.83L176.92 125.83C174.96 125.83 172.91 125.5 170.84 124.85C168.77 124.21 166.54 123.13 164.22 121.64C161.85 120.13 159.88 117.7 158.39 114.44C156.9 111.21 156.14 107.27 156.14 102.75C156.14 102.75 156.14 57.43 156.14 57.4C156.14 47.22 149.76 32.38 138.8 28.92C132.41 26.91 124.76 29.24 123.25 29.7C123.25 29.7 118.5 31.15 112.75 35.86C112.07 36.42 111.04 37.4 110.57 38.94C110.24 40.05 110.39 41.17 110.83 42.21C111.32 43.37 112.19 43.75 113.06 44.59C114.75 46.22 115.61 48.14 115.61 50.31C115.61 52.48 114.75 54.41 113.06 56.03C111.38 57.64 109.36 58.46 107.07 58.46C104.77 58.46 102.79 57.64 101.17 56.02C99.5302 54.38 98.5902 52.15 98.7402 49.81C98.9602 46.38 101.77 43.52 103.99 41.12C106.17 38.78 108.59 36.67 111.22 34.84C114.63 32.48 118.41 30.53 122.39 29.34C122.92 29.18 123.45 29.03 123.99 28.92C134.52 26.09 151.72 26.48 162.16 38.69C169.29 47.03 169.9 56.94 169.94 60.64V105.23C169.96 117.76 172.32 124.36 176.97 124.83Z" fill="#FFF"/>
<path d="M141.7 118.56C134.66 121.83 128.37 123.16 123.02 122.54C117.67 121.92 113.33 120 110.11 116.84C106.91 113.7 105.28 109.93 105.28 105.62V101.99C105.28 95.29 107.67 90.01 112.36 86.3C117.07 82.59 123.32 81.33 130.92 82.58L131.11 81.6C120.32 79.03 110.87 79.88 103.02 84.13C95.1001 88.42 91.0801 95.2 91.0801 104.28C91.0801 109.36 92.7001 113.88 95.8801 117.71C99.0601 121.53 103.09 124.25 107.88 125.81C110.82 126.76 114.08 127.24 117.6 127.24C119.79 127.24 122.08 127.06 124.47 126.69C130.7 125.72 136.67 123.28 142.19 119.43L141.7 118.56ZM108.19 124.86C103.58 123.36 99.7001 120.74 96.6501 117.07C93.6201 113.42 92.0801 109.12 92.0801 104.28C92.0801 95.59 95.9201 89.11 103.49 85.01C108.24 82.44 113.61 81.15 119.53 81.15C120.53 81.15 121.54 81.19 122.56 81.26C118.39 81.71 114.77 83.13 111.74 85.52C106.79 89.43 104.28 94.97 104.28 101.99V105.62C104.28 110.21 106.01 114.22 109.41 117.55C112.79 120.87 117.33 122.88 122.91 123.53C126.92 124 131.43 123.41 136.34 121.78C132.49 123.74 128.47 125.06 124.32 125.7C118.23 126.64 112.81 126.35 108.19 124.86ZM99.7801 46.43C100.01 46.09 100.3 45.67 100.66 45.18C100.31 45.58 100.02 45.99 99.7801 46.43Z" fill="#FFF"/>
<path d="M201.911 91.91V45.8C201.911 40.57 201.211 36.97 199.811 34.99C198.411 33.01 195.981 31.64 192.541 30.88H201.911L214.541 2.37V30.88H244.391V31.84H214.541V101.3C214.541 116.99 218.811 125.73 227.361 127.52C210.401 127 201.911 115.14 201.911 91.91Z" fill="#FFF"/>
<path d="M227.35 128.01C210.14 127.49 201.41 115.35 201.41 91.92V45.8C201.41 40.7 200.73 37.16 199.4 35.28C198.08 33.42 195.73 32.1 192.43 31.37L187.98 30.38H201.58L215.04 0V30.37H244.89V32.33H215.04V101.29C215.04 116.64 219.22 125.29 227.46 127.02L227.35 128.01ZM195.81 31.37C197.75 32.19 199.22 33.3 200.21 34.69C201.69 36.78 202.41 40.41 202.41 45.79V91.91C202.41 112.88 209.52 124.55 223.57 126.67C217.24 123.28 214.04 114.77 214.04 101.29V4.73L202.24 31.38H195.81V31.37Z" fill="#FFF"/>
<path d="M231.261 91.91V45.8C231.261 40.57 230.561 36.97 229.161 34.99C227.761 33.01 225.331 31.64 221.891 30.88H231.261L243.891 2.37V30.88H273.741V31.84H243.891V101.3C243.891 116.99 248.161 125.73 256.711 127.52C239.741 127 231.261 115.14 231.261 91.91Z" fill="#FFF"/>
<path d="M256.7 128.01C239.49 127.49 230.76 115.35 230.76 91.92V45.8C230.76 40.7 230.08 37.16 228.75 35.28C227.42 33.42 225.08 32.1 221.78 31.37L217.33 30.38H230.93L244.39 0V30.37H274.24V32.33H244.39V101.29C244.39 116.64 248.57 125.29 256.81 127.02L256.7 128.01ZM225.16 31.37C227.1 32.19 228.57 33.3 229.56 34.69C231.04 36.78 231.76 40.41 231.76 45.79V91.91C231.76 112.88 238.87 124.55 252.92 126.67C246.59 123.28 243.39 114.77 243.39 101.29V4.73L231.59 31.38H225.16V31.37Z" fill="#FFF"/>
<path d="M336.701 30.88C340.911 32.02 343.461 33.75 344.351 36.04C344.941 37.57 344.921 39.96 344.271 43.19L344.261 43.21C343.941 44.82 343.461 46.64 342.821 48.67C343.601 46.77 344.401 45.05 345.221 43.52C346.931 40.3 348.721 37.87 350.571 36.23C353.311 33.81 357.301 32.02 362.531 30.88H336.701Z" fill="#FFF"/>
<path d="M332.961 30.38L336.571 31.36C340.591 32.46 343.061 34.09 343.891 36.22C344.731 38.41 344.211 42.54 342.341 48.52L342.361 48.53L343.281 48.86C343.331 48.73 343.391 48.6 343.441 48.47C345.781 42.91 348.281 38.92 350.901 36.61C353.571 34.25 357.521 32.49 362.641 31.36L367.141 30.38H332.961ZM344.821 35.86C344.101 34.01 342.391 32.51 339.711 31.38H358.711C355.181 32.5 352.341 34 350.241 35.86C348.331 37.54 346.491 40.04 344.741 43.35C345.431 39.98 345.461 37.51 344.821 35.86ZM320.351 112.87L319.811 114.41L320.391 112.97L320.351 112.87Z" fill="#FFF"/>
<path d="M397.89 121.49C392.41 120.86 388 118.91 384.69 115.66C381.37 112.41 379.71 108.55 379.71 104.08V100.45C379.71 93.56 382.14 88.2 386.98 84.37C391.83 80.54 398.15 79.27 405.93 80.54C395.21 78 385.96 78.82 378.18 83.03C370.4 87.24 366.51 93.81 366.51 102.74C366.51 107.72 368.07 112.09 371.2 115.85C374.32 119.61 378.25 122.26 382.97 123.79C387.69 125.32 393.14 125.61 399.33 124.65C405.51 123.7 411.35 121.3 416.84 117.48C409.69 120.79 403.38 122.14 397.89 121.49Z" fill="#FFF"/>
<path d="M451.9 123.29L451.85 124.29C449.89 124.29 447.84 123.96 445.77 123.31C443.7 122.67 441.47 121.59 439.15 120.1C436.78 118.59 434.81 116.16 433.32 112.9C431.83 109.67 431.07 105.73 431.07 101.21C431.07 101.21 431.07 55.89 431.07 55.86C431.07 45.68 424.69 30.84 413.73 27.38C407.34 25.37 399.69 27.7 398.18 28.16C398.18 28.16 393.43 29.61 387.68 34.32C387 34.88 385.97 35.86 385.5 37.4C385.17 38.51 385.32 39.63 385.76 40.67C386.25 41.83 387.12 42.21 387.99 43.05C389.68 44.68 390.54 46.6 390.54 48.77C390.54 50.94 389.68 52.87 387.99 54.49C386.31 56.1 384.29 56.92 382 56.92C379.7 56.92 377.72 56.1 376.1 54.48C374.46 52.84 373.52 50.61 373.67 48.27C373.89 44.84 376.7 41.98 378.92 39.58C381.1 37.24 383.52 35.13 386.15 33.3C389.56 30.94 393.34 28.99 397.32 27.8C397.85 27.64 398.38 27.49 398.92 27.38C409.45 24.55 426.65 24.94 437.09 37.15C444.22 45.49 444.83 55.4 444.87 59.1V103.69C444.89 116.22 447.25 122.82 451.9 123.29Z" fill="#FFF"/>
<path d="M416.63 117.02C409.59 120.29 403.3 121.62 397.95 121C392.6 120.38 388.26 118.46 385.04 115.3C381.84 112.16 380.21 108.39 380.21 104.08V100.45C380.21 93.75 382.6 88.47 387.29 84.76C392 81.05 398.25 79.79 405.85 81.04L406.04 80.06C395.25 77.49 385.8 78.34 377.95 82.59C370.03 86.88 366.01 93.66 366.01 102.74C366.01 107.82 367.63 112.34 370.81 116.17C373.99 119.99 378.02 122.71 382.81 124.27C385.75 125.22 389.01 125.7 392.53 125.7C394.72 125.7 397.01 125.52 399.4 125.15C405.63 124.18 411.6 121.74 417.12 117.89L416.63 117.02ZM383.12 123.32C378.51 121.82 374.63 119.2 371.58 115.53C368.55 111.88 367.01 107.58 367.01 102.74C367.01 94.05 370.85 87.57 378.42 83.47C383.17 80.9 388.54 79.61 394.46 79.61C395.46 79.61 396.47 79.65 397.49 79.72C393.32 80.17 389.7 81.59 386.67 83.98C381.72 87.89 379.21 93.43 379.21 100.45V104.08C379.21 108.67 380.94 112.68 384.34 116.01C387.72 119.33 392.26 121.34 397.84 121.99C401.85 122.46 406.36 121.87 411.27 120.24C407.42 122.2 403.4 123.52 399.25 124.16C393.16 125.1 387.74 124.81 383.12 123.32ZM374.71 44.89C374.94 44.55 375.23 44.13 375.59 43.64C375.24 44.04 374.95 44.45 374.71 44.89Z" fill="#FFF"/>
<path d="M343.44 48.47C341.71 53.28 339.99 58.1 338.26 62.91C334.86 72.4 331.45 81.9 328.05 91.39C325.04 99.78 322.27 108.31 318.93 116.57C317.01 121.32 315.06 126.05 313.14 130.79L280.74 45.6C278.74 40.72 276.65 37.24 274.55 35.26C272.45 33.3 269.77 31.99 266.57 31.37L266.66 30.38H303.06L298.53 31.36C295.79 31.96 294.11 33.11 293.54 34.77C292.94 36.5 293.52 39.97 295.27 45.07L299.28 55.77L319.82 111.41L342.36 48.53L343.28 48.86C343.33 48.73 343.39 48.6 343.44 48.47Z" fill="#FFF"/>
<path d="M345.219 43.52L343.439 48.47C343.389 48.6 343.329 48.73 343.279 48.86L342.359 48.53L344.259 43.21L344.269 43.19L344.739 43.35L345.219 43.52Z" fill="#FFF"/>
<path d="M146.94 174.45V169.62L147.26 170.47L141.74 161.44H143.21L148.06 169.37H147.28L152.13 161.44H153.5L147.98 170.47L148.3 169.62V174.45H146.94Z" fill="#FFF"/>
<path d="M164.471 174.56C163.491 174.56 162.581 174.4 161.751 174.07C160.911 173.74 160.191 173.28 159.581 172.68C158.971 172.08 158.491 171.38 158.151 170.58C157.811 169.78 157.641 168.91 157.641 167.95C157.641 167 157.811 166.12 158.151 165.32C158.491 164.52 158.971 163.82 159.581 163.22C160.191 162.62 160.911 162.15 161.741 161.83C162.571 161.5 163.481 161.34 164.471 161.34C165.451 161.34 166.351 161.5 167.181 161.83C168.011 162.16 168.731 162.62 169.341 163.21C169.951 163.8 170.431 164.5 170.771 165.31C171.111 166.11 171.281 166.99 171.281 167.95C171.281 168.9 171.111 169.78 170.771 170.59C170.431 171.39 169.951 172.09 169.341 172.69C168.731 173.28 168.011 173.75 167.181 174.07C166.351 174.39 165.451 174.56 164.471 174.56ZM164.471 173.33C165.251 173.33 165.971 173.2 166.631 172.93C167.291 172.66 167.871 172.29 168.361 171.8C168.851 171.31 169.231 170.74 169.501 170.09C169.771 169.44 169.911 168.72 169.911 167.94C169.911 167.16 169.771 166.44 169.501 165.79C169.231 165.14 168.851 164.57 168.361 164.08C167.871 163.59 167.291 163.21 166.631 162.95C165.971 162.68 165.251 162.55 164.471 162.55C163.691 162.55 162.971 162.68 162.301 162.95C161.631 163.22 161.051 163.59 160.561 164.08C160.071 164.57 159.691 165.14 159.411 165.79C159.131 166.44 158.991 167.16 158.991 167.94C158.991 168.71 159.131 169.42 159.411 170.08C159.691 170.74 160.071 171.31 160.561 171.8C161.051 172.29 161.631 172.67 162.301 172.93C162.971 173.2 163.691 173.33 164.471 173.33Z" fill="#FFF"/>
<path d="M183.789 174.56C182.799 174.56 181.889 174.4 181.049 174.07C180.209 173.74 179.489 173.28 178.879 172.69C178.269 172.1 177.789 171.4 177.449 170.59C177.109 169.79 176.939 168.91 176.939 167.95C176.939 167 177.109 166.12 177.449 165.31C177.789 164.51 178.269 163.81 178.889 163.21C179.509 162.62 180.239 162.15 181.069 161.83C181.909 161.5 182.819 161.34 183.809 161.34C184.799 161.34 185.709 161.49 186.529 161.8C187.349 162.11 188.059 162.58 188.639 163.21L187.779 164.08C187.239 163.54 186.639 163.15 185.979 162.91C185.319 162.67 184.619 162.56 183.859 162.56C183.049 162.56 182.319 162.69 181.639 162.96C180.969 163.23 180.379 163.6 179.879 164.09C179.379 164.58 178.989 165.15 178.709 165.8C178.429 166.45 178.289 167.17 178.289 167.95C178.289 168.72 178.429 169.43 178.709 170.09C178.989 170.75 179.379 171.32 179.879 171.81C180.379 172.3 180.969 172.68 181.639 172.94C182.319 173.21 183.049 173.34 183.839 173.34C184.579 173.34 185.289 173.23 185.949 173.01C186.609 172.79 187.219 172.41 187.779 171.88L188.559 172.92C187.939 173.46 187.219 173.88 186.389 174.16C185.559 174.42 184.689 174.56 183.789 174.56ZM187.249 172.74V167.95H188.569V172.91L187.249 172.74Z" fill="#FFF"/>
<path d="M194.08 174.45L200.02 161.45H201.38L207.32 174.45H205.87L200.41 162.25H200.97L195.51 174.45H194.08ZM196.42 170.97L196.83 169.86H204.39L204.8 170.97H196.42Z" fill="#FFF"/>
<path d="M225.359 174.56C224.389 174.56 223.469 174.4 222.579 174.09C221.689 173.78 221.009 173.37 220.529 172.87L221.069 171.81C221.529 172.26 222.139 172.63 222.919 172.93C223.689 173.23 224.509 173.39 225.359 173.39C226.179 173.39 226.839 173.29 227.359 173.08C227.869 172.88 228.249 172.6 228.489 172.25C228.729 171.9 228.849 171.52 228.849 171.1C228.849 170.59 228.699 170.18 228.409 169.87C228.119 169.56 227.739 169.32 227.269 169.14C226.799 168.96 226.279 168.8 225.709 168.67C225.139 168.53 224.569 168.39 223.999 168.23C223.429 168.08 222.909 167.87 222.429 167.61C221.949 167.35 221.569 167.01 221.279 166.58C220.989 166.15 220.839 165.59 220.839 164.9C220.839 164.26 221.009 163.66 221.349 163.13C221.689 162.6 222.209 162.16 222.919 161.83C223.629 161.5 224.529 161.34 225.629 161.34C226.359 161.34 227.089 161.44 227.799 161.65C228.509 161.86 229.139 162.14 229.659 162.5L229.199 163.6C228.639 163.23 228.049 162.96 227.429 162.78C226.809 162.61 226.199 162.52 225.619 162.52C224.839 162.52 224.199 162.63 223.689 162.84C223.179 163.05 222.809 163.33 222.569 163.69C222.329 164.05 222.209 164.44 222.209 164.89C222.209 165.4 222.359 165.81 222.649 166.12C222.939 166.43 223.319 166.67 223.799 166.84C224.279 167.01 224.799 167.17 225.369 167.3C225.939 167.44 226.509 167.58 227.069 167.75C227.629 167.91 228.149 168.12 228.629 168.37C229.109 168.62 229.489 168.96 229.779 169.38C230.069 169.8 230.219 170.35 230.219 171.03C230.219 171.66 230.049 172.25 229.699 172.79C229.349 173.33 228.819 173.76 228.109 174.09C227.389 174.39 226.479 174.56 225.359 174.56Z" fill="#FFF"/>
<path d="M239.259 174.45V162.64H234.689V161.45H245.199V162.64H240.629V174.45H239.259Z" fill="#FFF"/>
<path d="M256.09 174.56C254.43 174.56 253.12 174.08 252.17 173.13C251.22 172.18 250.74 170.76 250.74 168.89V161.44H252.11V168.83C252.11 170.37 252.46 171.5 253.15 172.23C253.84 172.96 254.82 173.33 256.09 173.33C257.36 173.33 258.35 172.96 259.04 172.23C259.73 171.5 260.08 170.37 260.08 168.83V161.44H261.42V168.89C261.42 170.76 260.95 172.17 260 173.13C259.05 174.08 257.75 174.56 256.09 174.56Z" fill="#FFF"/>
<path d="M269.279 174.45V161.45H274.569C275.959 161.45 277.169 161.73 278.219 162.28C279.269 162.83 280.079 163.6 280.659 164.57C281.239 165.55 281.529 166.68 281.529 167.95C281.529 169.23 281.239 170.35 280.659 171.33C280.079 172.31 279.259 173.07 278.219 173.62C277.169 174.17 275.959 174.45 274.569 174.45H269.279ZM270.649 173.26H274.499C275.649 173.26 276.649 173.03 277.499 172.58C278.349 172.13 279.009 171.5 279.479 170.7C279.949 169.9 280.189 168.98 280.189 167.94C280.189 166.89 279.949 165.96 279.479 165.17C279.009 164.38 278.349 163.76 277.499 163.3C276.649 162.85 275.649 162.62 274.499 162.62H270.649V173.26Z" fill="#FFF"/>
<path d="M288.34 174.45V161.45H289.71V174.45H288.34Z" fill="#FFF"/>
<path d="M303.34 174.56C302.36 174.56 301.45 174.4 300.62 174.07C299.78 173.74 299.06 173.28 298.45 172.68C297.84 172.08 297.36 171.38 297.02 170.58C296.68 169.78 296.51 168.91 296.51 167.95C296.51 167 296.68 166.12 297.02 165.32C297.36 164.52 297.84 163.82 298.45 163.22C299.06 162.62 299.78 162.15 300.61 161.83C301.44 161.5 302.35 161.34 303.34 161.34C304.32 161.34 305.22 161.5 306.05 161.83C306.88 162.16 307.6 162.62 308.21 163.21C308.82 163.8 309.3 164.5 309.64 165.31C309.98 166.11 310.15 166.99 310.15 167.95C310.15 168.9 309.98 169.78 309.64 170.59C309.3 171.39 308.82 172.09 308.21 172.69C307.6 173.28 306.88 173.75 306.05 174.07C305.23 174.39 304.32 174.56 303.34 174.56ZM303.34 173.33C304.12 173.33 304.84 173.2 305.5 172.93C306.16 172.66 306.74 172.29 307.23 171.8C307.72 171.31 308.1 170.74 308.37 170.09C308.64 169.44 308.78 168.72 308.78 167.94C308.78 167.16 308.64 166.44 308.37 165.79C308.1 165.14 307.72 164.57 307.23 164.08C306.74 163.59 306.16 163.21 305.5 162.95C304.84 162.68 304.12 162.55 303.34 162.55C302.56 162.55 301.84 162.68 301.17 162.95C300.5 163.22 299.92 163.59 299.43 164.08C298.94 164.57 298.56 165.14 298.28 165.79C298 166.44 297.86 167.16 297.86 167.94C297.86 168.71 298 169.42 298.28 170.08C298.56 170.74 298.94 171.31 299.43 171.8C299.92 172.29 300.5 172.67 301.17 172.93C301.84 173.2 302.56 173.33 303.34 173.33Z" fill="#FFF"/>
</g>
<defs>
<clipPath id="clip0_387_226">
<rect width="451.9" height="174.56" fill="white"/>
</clipPath>
</defs>
</svg>
