<svg width="473" height="520" viewBox="0 0 473 520" fill="none" xmlns="http://www.w3.org/2000/svg">
<g clip-path="url(#clip0_445_226)">
<path d="M220.38 134.31C220.36 134.33 220.33 134.36 220.33 134.36C220.25 134.34 220.18 134.31 220.1 134.29C220.19 134.3 220.29 134.3 220.38 134.31Z" fill="#6B7276"/>
<path d="M323.539 226.78C323.509 226.68 323.469 226.57 323.439 226.47L323.489 226.41C323.509 226.53 323.519 226.66 323.539 226.78Z" fill="#6B7276"/>
<path d="M220.38 134.31C220.36 134.33 220.33 134.36 220.33 134.36L220.38 134.31Z" fill="#6B7276"/>
<path d="M472.569 259.98C473.429 349.1 426.729 432.1 351.499 479.85C316.119 502.3 275.069 515.83 233.239 518.53C228.739 518.82 224.239 518.99 219.739 519.03C218.449 519.04 217.029 518.99 216.089 518.11C215.769 517.81 215.519 517.38 215.549 516.94C215.619 516.1 217.209 515.48 217.179 515.5C238.539 515.26 255.979 512.28 268.399 509.39C271.549 508.66 282.439 506.05 296.289 501.07C296.289 501.07 316.619 494 334.849 483.63C376.049 460.19 410.479 425.07 433.419 383.62C453.059 348.13 464.509 307.62 465.569 267.04C466.149 244.74 464.079 222.87 458.879 201.14C453.889 180.31 446.859 160.46 437.249 141.4C423.749 114.63 405.959 90.9 383.879 70.86C338.269 29.46 279.279 4.39995 217.359 4.05995C216.229 1.50995 220.219 -0.0800456 223.009 -4.56045e-05C290.169 2.00995 356.089 31.64 402.169 80.54C447.509 128.65 471.939 194.26 472.569 259.98Z" fill="#6B7276"/>
<path d="M195.298 422.751C193.878 422.501 192.458 422.211 191.028 421.971C190.398 421.861 189.758 421.761 189.118 421.681C184.328 421.061 179.528 420.531 174.728 419.971C163.258 417.071 151.608 414.731 140.358 411.141C123.368 405.731 108.448 396.301 94.5582 385.231C93.0882 384.051 91.6082 382.881 90.1282 381.711C83.2082 374.541 76.2782 367.361 69.3582 360.191C65.6682 354.651 61.9682 349.131 58.3182 343.571C57.5882 342.471 57.0782 341.221 56.4682 340.031C53.8882 335.101 51.3082 330.161 48.7182 325.231C47.5582 322.281 46.3982 319.331 45.2382 316.391C44.5482 315.101 43.6482 313.881 43.1982 312.521C29.3282 271.071 30.7282 230.261 48.9282 190.391C74.4582 134.481 130.908 98.3107 190.908 96.2807C185.798 96.0207 180.018 96.0607 173.718 96.6307C163.468 97.5607 154.668 99.6707 147.628 101.911C142.518 103.811 137.408 105.711 132.288 107.621C126.808 110.401 121.328 113.181 115.848 115.971C115.688 115.651 115.528 115.321 115.368 115.001C120.938 112.451 126.508 109.901 132.078 107.351C137.218 105.491 142.368 103.621 147.508 101.761C156.678 99.3507 166.518 97.1507 177.008 95.3107C182.038 94.4307 186.948 93.6807 191.728 93.0407C191.458 92.7007 191.178 92.3507 190.908 92.0107C178.158 92.8007 159.818 95.0707 139.378 102.931C74.1382 128.011 37.5182 176.861 30.2882 246.371C26.5082 282.721 35.2582 317.001 55.0282 347.941C84.9282 394.741 127.848 420.781 183.048 426.381C185.648 426.641 188.338 425.971 191.038 425.261C192.508 424.871 193.968 424.471 195.428 424.201C195.388 423.721 195.338 423.241 195.298 422.751ZM104.858 121.721C105.018 121.941 105.178 122.151 105.348 122.371C102.058 124.741 98.7782 127.121 95.4982 129.501C95.3382 129.281 95.1782 129.071 95.0082 128.851C98.2982 126.471 101.578 124.101 104.858 121.721Z" fill="#6B7276"/>
<path d="M176.5 68.4404C169.5 69.8504 162.47 71.0904 155.52 72.6804C124.38 79.8004 96.8298 93.8904 72.8898 115.1C34.5798 149.04 12.4198 191.44 7.87984 242.34C-0.420156 335.32 58.9598 418.04 146.01 441.8C158.8 445.29 172.27 446.25 185.41 448.51C188.75 449.08 192 450.14 195.29 450.98C195.26 451.46 195.24 451.94 195.21 452.42C193.31 452.58 191.41 452.94 189.52 452.86C147.88 451.22 110.5 437.62 77.8498 411.83C37.7398 380.16 13.7598 338.73 5.84984 288.27C-5.87016 213.45 29.5698 136.79 93.8498 96.7104C117.34 82.0604 142.75 72.9004 170.1 68.9704C172.23 68.6604 174.4 68.6404 176.56 68.4904C176.57 68.4804 176.5 68.4404 176.5 68.4404Z" fill="#6B7276"/>
<path d="M191.16 364.941C191.29 363.971 191.21 363.351 190.98 362.971C190.31 361.851 188.43 362.761 187.44 362.561C184.41 361.941 181.27 361.831 178.23 361.251C116 349.391 79.2296 287.541 98.4696 227.131C111.37 186.591 149.33 158.331 190.96 156.101C186.57 155.741 180.18 155.611 172.67 156.941C169.36 157.531 156.9 160.191 140.61 171.211C94.7296 202.231 82.6996 245.801 97.7996 297.911C84.5596 259.051 88.5296 222.121 116.11 191.111C138.42 166.031 163.6 153.961 190.96 153.191C184.3 152.791 175.8 153.091 166.48 155.731C113.6 170.731 74.8896 250.111 96.9496 302.201C99.2496 307.631 102.09 312.841 104.68 318.151C105.22 318.841 105.76 319.541 106.29 320.241C106.69 320.771 107.09 321.301 107.49 321.841C108.29 322.901 109.09 323.971 109.91 325.021C110.32 325.541 110.73 326.071 111.15 326.581C111.15 326.601 111.16 326.611 111.18 326.621C111.19 326.641 111.21 326.661 111.23 326.681C111.44 326.941 111.65 327.201 111.87 327.461C112.11 327.751 112.35 328.031 112.6 328.311C112.74 328.481 112.88 328.641 113.03 328.801C113.37 329.191 113.72 329.571 114.08 329.951C114.5 330.401 114.93 330.841 115.36 331.281C115.77 331.711 116.19 332.141 116.61 332.561C116.63 332.581 116.65 332.601 116.67 332.621C116.72 332.671 116.77 332.721 116.81 332.771C116.85 332.811 116.88 332.851 116.92 332.891C117.13 333.101 117.35 333.311 117.57 333.531C118.51 334.471 119.46 335.401 120.41 336.331C121.63 337.521 122.86 338.701 124.1 339.871C125.21 340.931 126.33 341.991 127.44 343.061C128.64 344.201 129.84 345.351 131.03 346.501C143.89 356.651 158.5 362.981 174.44 366.411C179.94 366.951 185.4 368.481 190.98 368.181C192.56 368.101 194.16 367.871 195.77 367.431C194.23 366.191 191.11 365.351 191.16 364.941ZM117.97 329.531C119.43 331.051 120.83 332.471 122.17 333.941C123.43 335.311 124.64 336.741 126.51 337.531C123.67 334.871 120.83 332.211 117.97 329.531Z" fill="#6B7276"/>
<path d="M135.369 397.46C135.389 397.47 135.409 397.47 135.429 397.48C135.449 397.49 135.479 397.51 135.499 397.52L135.369 397.46Z" fill="#6B7276"/>
<path d="M193.479 408.071C193.429 408.601 193.379 409.131 193.339 409.661C192.559 409.661 191.779 409.701 190.999 409.731C189.839 409.771 188.689 409.791 187.559 409.621C177.709 408.151 167.869 406.561 158.029 405.021C157.229 404.901 156.419 404.841 155.619 404.751L155.749 404.811C148.979 402.371 142.209 399.921 135.429 397.481C128.939 393.971 122.439 390.441 115.949 386.921C111.359 383.541 106.769 380.171 102.179 376.791C100.449 375.331 98.7194 373.871 96.9894 372.421C92.6494 368.341 88.3094 364.261 83.9694 360.191H83.9594C82.6394 358.321 81.3194 356.461 79.9894 354.601C76.8594 350.501 73.7294 346.411 70.5994 342.311C69.9494 341.011 69.3094 339.711 68.6594 338.401C41.8494 292.271 39.0394 244.791 60.5994 195.911C61.1294 194.711 61.3694 193.371 61.7394 192.101C62.8794 190.131 63.9094 188.091 65.1794 186.201C69.6394 179.541 74.1894 172.931 78.6994 166.291C85.1994 159.381 91.6894 152.471 98.1894 145.561C101.979 142.451 105.759 139.331 109.549 136.221C113.159 133.951 116.779 131.681 120.389 129.411C122.229 128.631 124.119 127.931 125.909 127.061C147.999 116.261 169.659 110.331 190.909 109.271C190.949 109.271 192.539 110.261 192.539 110.261C192.539 110.261 192.479 110.301 190.909 111.451C190.309 111.471 189.489 111.501 188.519 111.561C131.349 114.691 66.9994 163.431 51.9394 229.431C45.1094 259.381 50.2594 284.881 52.7694 295.031C57.7194 315.051 67.2094 333.971 81.2194 351.681C109.189 387.001 146.769 404.211 190.999 407.881C191.829 407.951 192.649 408.011 193.479 408.071Z" fill="#6B7276"/>
<path d="M194.919 352.191C193.599 352.441 192.279 352.601 190.979 352.701C183.819 353.221 176.959 351.611 170.229 349.551C145.739 342.051 127.089 327.031 114.799 304.611C90.2992 259.911 108.149 209.391 138.229 187.841C138.499 188.101 138.769 188.351 139.029 188.611C135.389 191.631 131.739 194.651 128.089 197.671C128.449 198.111 128.809 198.551 129.159 198.991C146.539 180.901 167.069 170.931 190.969 169.381C191.429 169.651 191.719 169.821 191.719 169.821C191.719 169.821 191.429 170.301 190.969 171.051C182.709 170.801 170.369 174.051 156.839 180.491C154.989 181.371 153.579 183.121 151.959 184.471C150.539 185.261 149.109 186.061 147.679 186.861C146.249 187.491 144.639 187.871 143.419 188.781C113.119 211.141 100.379 252.141 112.659 287.711C113.119 289.041 114.089 290.191 114.819 291.431C118.169 297.851 121.519 304.271 124.869 310.691C129.069 315.341 133.269 319.981 137.469 324.631C141.029 327.551 144.599 330.471 148.159 333.381C158.399 341.161 170.229 344.881 182.659 347.321C185.519 347.881 188.279 348.901 190.979 350.171C192.309 350.791 193.619 351.471 194.919 352.191Z" fill="#6B7276"/>
<path d="M192.198 342.45C192.198 342.88 192.188 343.31 192.188 343.74C191.788 343.76 191.388 343.78 190.978 343.8C189.808 343.88 188.638 343.96 187.468 343.92C185.888 343.86 184.318 343.57 181.928 343.28C183.018 344.45 183.548 345.02 184.548 346.09C183.198 346.17 182.338 346.39 181.538 346.25C170.948 344.34 161.008 340.69 151.768 335.14C150.628 334.46 149.368 333.96 148.158 333.38C144.598 330.47 141.028 327.55 137.468 324.63C133.268 319.98 129.068 315.34 124.868 310.69C121.518 304.27 118.168 297.85 114.818 291.43C104.278 261.67 107.558 233.76 125.988 207.87C128.858 206.02 131.908 204.39 134.558 202.27C137.688 199.78 140.468 196.87 143.408 194.14C148.318 190.93 153.248 187.73 158.158 184.51C160.588 182.91 162.988 181.27 165.408 179.64C168.038 178.74 170.668 177.84 173.308 176.94C175.918 176.75 178.528 176.56 181.128 176.37C184.408 176.38 187.698 176.39 190.978 176.39V176.58C172.578 177.58 155.678 184.79 140.748 198.73C115.758 222.07 107.738 251.42 117.958 284.07C128.328 317.23 152.038 336.16 186.408 341.6C187.928 341.84 189.458 342.05 190.978 342.27C191.388 342.33 191.788 342.39 192.198 342.45Z" fill="#6B7276"/>
<path d="M154.22 134.371C166.78 130.391 179.03 128.031 190.93 127.311C192.19 128.021 192.23 128.041 192.23 128.041C192.23 128.041 191.8 128.521 190.93 129.481C168.02 130.251 150.91 136.661 141.21 141.201C115.8 153.101 94.6601 173.641 80.2901 201.211C67.2901 226.161 63.1201 253.031 68.3301 280.631C78.7501 335.771 111.63 370.831 165.56 386.141C170.34 387.491 175.34 388.051 180.23 389.031C181.44 389.281 182.61 389.701 183.8 390.051C183.71 390.521 183.62 390.991 183.54 391.461C178.87 390.751 174.14 390.301 169.54 389.271C114.78 377.021 74.9901 334.991 65.8601 279.881C55.5301 217.531 93.9701 153.491 154.22 134.371Z" fill="#6B7276"/>
<path d="M175.09 441.67C175.01 442.05 174.94 442.42 174.86 442.8C172.59 442.55 170.31 442.39 168.07 442.02C92.5701 429.74 32.9601 373.99 16.5901 299.03C5.40009 247.75 14.6401 199.68 44.1601 156.19C61.6301 130.47 83.1301 110.79 108.42 97.1801C108.43 97.1701 108.45 97.1701 108.46 97.1601C109.07 96.8801 109.68 96.6001 110.3 96.3301C116.42 93.6101 122.67 91.0501 129.07 89.1401C130.83 88.6201 132.6 88.0901 134.37 87.5801C105.17 98.1401 78.5801 116 58.1701 140.23C26.7501 177.54 11.9601 220.59 14.3401 269.18C16.2701 308.64 30.1401 343.83 54.9701 374.63C55.8801 375.76 57.0901 376.65 58.1701 377.65C61.2301 380.87 64.2901 384.09 67.3501 387.31C73.4101 395.64 81.5101 401.64 90.0201 407.17C90.0401 407.18 90.0701 407.2 90.0901 407.21C94.7601 410.2 99.4201 413.17 104.09 416.16C105.25 416.94 106.42 417.72 107.58 418.5C112.32 421.02 116.93 423.83 121.81 426.02C134 431.47 146.51 436 159.8 438.02L159.71 437.93C163.38 438.7 167.07 439.41 170.72 440.25C172.21 440.59 173.64 441.19 175.09 441.67Z" fill="#6B7276"/>
<path d="M187.038 445.56C186.988 445.95 186.938 446.34 186.888 446.72C183.708 446.72 180.488 447.03 177.338 446.68C132.618 441.7 94.1383 423.41 62.7583 391.23C0.848274 327.76 -8.72173 230.74 39.1783 157.65C47.6983 144.66 57.3183 133.24 67.7583 123.35C75.1283 117.05 82.9483 111.33 91.2683 106.28C90.3883 106.87 89.5183 107.48 88.6483 108.1C49.9583 135.54 25.1483 172.96 15.1983 219.28C3.19828 275.13 14.2783 326.77 48.9283 372.29C83.4383 417.63 130.298 441.2 187.038 445.56Z" fill="#6B7276"/>
<path d="M49.6094 362.72C45.1494 354.88 40.2294 347.26 36.3094 339.15C14.1194 293.24 11.6994 246.16 28.6394 198.08C29.1394 196.65 29.8694 195.3 31.3494 193.98C12.2094 251.32 16.1994 306.18 49.8594 356.88C83.5294 407.61 132.289 432.83 192.819 436.25C192.799 436.61 192.769 436.98 192.749 437.34C191.759 437.54 190.769 437.86 189.769 437.91C177.579 438.46 165.649 436.73 153.869 433.76C152.429 433.4 150.959 433.18 149.509 432.89C144.709 431.36 139.899 429.82 135.099 428.29C129.669 426.11 124.239 423.94 118.809 421.76C115.529 419.92 112.089 418.31 108.999 416.2C99.2594 409.54 89.6394 402.69 79.9794 395.92C71.2094 386.44 62.4394 376.97 53.6894 367.47C52.2494 365.91 50.9194 364.24 49.5394 362.61L49.6094 362.72Z" fill="#6B7276"/>
<path d="M41.02 186.971C16.46 240.451 18.58 293.981 47.69 345.091C76.68 396.011 122.14 423.641 179.94 431.751C131.97 430.021 63.94 396.271 35.21 323.601C4.77995 246.621 33.52 163.531 94.76 119.221C125.12 97.2609 158.82 87.3809 190.92 86.3809C179.85 87.2809 164.43 89.4609 146.83 95.1009C133.36 99.4209 83.9 93.6009 41.02 186.971Z" fill="#6B7276"/>
<path d="M55.0499 230.05C49.6599 254.49 51.1599 278.86 58.6199 302.8C58.9699 303.91 59.6399 304.93 60.1599 305.99L60.0699 305.9C62.6899 312.48 65.1999 319.12 68.0099 325.63C68.8699 327.64 70.5399 329.3 71.8399 331.13C73.3199 333.79 74.7999 336.45 76.2899 339.12C79.2699 343.22 82.2499 347.33 85.2399 351.43C88.5799 354.95 91.8599 358.53 95.2599 361.99C110.37 377.35 128.14 388.71 148.56 395.36C159.12 398.8 170.26 400.47 181.13 402.93C183.67 403.44 186.21 403.95 188.75 404.46C188.72 404.83 188.68 405.2 188.65 405.57C182.09 406.55 175.61 405.02 169.23 403.74C132.08 396.26 101.82 377.51 79.2299 347.08C34.2999 286.55 42.2099 202.92 97.6399 151.92C126.02 125.81 159.65 114.62 190.91 113.44C174.44 114.58 151.65 118.73 128.25 131.79C81.5999 157.83 60.9199 203.43 55.0499 230.05Z" fill="#6B7276"/>
<path d="M195.289 324.381C194.029 324.661 192.589 324.811 190.989 324.821C177.079 324.881 151.819 314.371 139.279 290.911C124.799 263.821 132.089 234.161 146.889 217.931C159.089 204.551 173.889 197.561 190.989 196.431L191.859 196.571C185.569 197.691 161.699 202.681 146.619 224.241C143.879 228.161 139.129 235.951 136.809 246.981C130.009 279.231 150.339 311.021 182.609 318.901C185.479 319.601 188.249 320.771 190.999 321.951C192.359 322.541 193.719 323.131 195.089 323.671C195.219 323.731 195.229 324.141 195.289 324.381Z" fill="#6B7276"/>
<path d="M77.5691 301.521C73.0591 287.571 70.5191 273.301 70.5591 258.591C70.7091 200.751 112.419 149.221 168.939 137.121C169.439 137.011 169.969 136.991 170.419 136.931C110.849 155.371 75.8191 194.021 73.0891 257.751C71.6491 291.361 84.0591 320.641 107.289 345.001C130.469 369.311 159.449 381.381 192.809 383.801C185.089 386.951 177.769 384.191 170.389 383.421C151.299 379.431 134.159 371.181 118.779 359.311C108.269 351.201 99.1591 341.681 92.1391 330.301C89.0191 325.161 85.8991 320.021 82.7791 314.881C81.0491 310.431 79.3091 305.971 77.5691 301.521Z" fill="#6B7276"/>
<path d="M176.408 409.491C178.288 409.921 180.168 410.321 182.058 410.731C181.968 411.181 181.888 411.631 181.808 412.071C177.958 411.561 174.088 411.161 170.258 410.511C107.418 399.841 56.2584 348.291 46.1084 285.441C36.5584 226.341 60.9184 170.291 105.328 137.261C135.298 114.971 169.448 109.551 169.448 109.551C178.238 108.141 185.678 107.821 190.898 107.811C190.898 108.041 190.908 108.261 190.908 108.491C181.278 108.901 171.548 110.251 161.718 112.541C147.078 115.951 133.098 121.171 120.388 129.411C116.778 131.681 113.158 133.951 109.548 136.221C105.758 139.331 101.978 142.451 98.1884 145.561C98.1684 145.581 98.1384 145.601 98.1184 145.621C94.1984 149.151 90.0784 152.481 86.4384 156.281C83.5384 159.311 81.2584 162.931 78.6984 166.291C74.1884 172.931 69.6384 179.541 65.1784 186.201C63.9084 188.091 62.8784 190.131 61.7384 192.101C61.3084 192.781 60.7984 193.421 60.4684 194.141C38.6984 242.051 40.5884 289.081 65.7684 335.211C66.4384 336.431 67.6784 337.351 68.6584 338.401C69.3084 339.711 69.9484 341.011 70.5984 342.311C73.7284 346.411 76.8584 350.501 79.9884 354.601C81.3184 356.461 82.6384 358.321 83.9684 360.191C88.3084 364.261 92.6484 368.341 96.9884 372.421C98.7184 373.871 100.448 375.331 102.178 376.791C106.768 380.171 111.358 383.541 115.948 386.921C122.438 390.441 128.938 393.971 135.428 397.481C142.208 399.921 148.978 402.371 155.748 404.811L155.618 404.751C162.548 406.331 169.478 407.911 176.408 409.491Z" fill="#6B7276"/>
<path d="M129.888 142.36C116.898 150.56 105.168 160.14 95.0284 171.7C50.5084 222.41 51.9884 302.07 98.5084 350.96C123.438 377.17 153.958 391.41 190.128 393.53C191.968 393.64 193.778 394.4 195.438 395.68C179.908 396.98 165.008 393.96 150.638 388.59C113.638 374.74 86.7384 349.77 71.2884 313.39C41.3684 242.98 75.9684 169.82 129.888 142.36Z" fill="#6B7276"/>
<path d="M191.619 277.67C191.419 277.6 191.229 277.53 191.029 277.45C184.259 274.98 179.159 270.92 178.909 262.85C178.779 258.76 178.879 254.66 178.879 250.82C178.549 251.33 177.909 252.32 177.269 253.31C180.289 245.52 184.979 241.09 191.029 239.27C191.029 237.86 191.029 236.46 191.019 235.05C187.739 235.77 184.559 237.14 181.489 239.31C183.839 236.71 187.239 234.94 191.019 234.11V231.96C188.189 232.61 185.359 233.74 182.549 235.35C172.749 240.96 167.139 252.38 168.739 263C170.539 275.06 178.909 284.42 190.289 287.1C190.549 287.16 190.789 287.22 191.029 287.26C193.939 287.84 194.979 287.24 195.629 284.8C196.799 280.44 195.969 279.18 191.619 277.67Z" fill="#6B7276"/>
<path d="M91.2587 218.38C78.3587 252.65 80.9687 286.13 99.7287 317.6C118.489 349.06 147.129 366.47 184.149 372.21C167.039 379.41 119.499 350.68 100.869 323.2C70.6887 278.7 76.4687 217.73 114.889 178.79C137.159 156.22 164.729 145.94 190.949 144.7L191.349 145.32C179.349 146.37 161.029 149.66 141.769 160.39C123.609 170.51 106.019 179.16 91.2587 218.38Z" fill="#6B7276"/>
<path d="M196.009 338.261C195.989 338.761 195.969 339.251 195.949 339.751C194.389 339.901 192.819 340.251 191.269 340.181C191.169 340.181 191.079 340.171 190.979 340.161C155.079 338.341 123.129 309.201 117.419 273.061C112.209 240.141 126.859 209.201 152.579 192.411C162.649 185.841 188.549 179.801 188.549 179.801C189.359 180.191 190.169 180.571 190.979 180.961C154.159 183.731 122.729 212.601 119.229 251.851C115.289 296.011 146.699 333.291 190.979 337.241C191.219 337.261 191.449 337.281 191.689 337.301C193.149 337.421 194.569 337.931 196.009 338.261Z" fill="#6B7276"/>
<path d="M191.029 300.711C192.349 301.001 193.709 301.251 195.099 301.471C193.679 302.671 192.379 303.491 191.029 303.951C189.449 304.471 187.809 304.501 185.869 304.001C160.549 297.521 145.679 271.531 153.109 246.391C158.349 228.661 173.699 216.611 191.009 214.431C192.419 214.911 192.469 214.931 192.469 214.931C192.469 214.931 192.369 215.991 192.109 216.601C191.919 217.051 191.499 217.621 190.469 218.091C187.449 218.711 183.199 219.881 178.529 222.251C174.419 224.331 165.499 228.991 159.909 239.251C156.509 245.491 154.949 252.771 155.429 260.891C156.759 283.511 169.739 296.171 191.029 300.711Z" fill="#6B7276"/>
<path d="M88.4684 243.701C84.7984 269.071 89.5284 292.821 102.278 315.011C102.918 316.111 103.808 317.051 104.608 318.061C104.618 318.071 104.618 318.071 104.618 318.081C105.058 319.041 105.298 320.171 105.978 320.911C107.708 322.821 109.438 324.721 111.178 326.621C113.028 328.651 114.878 330.671 116.728 332.691C120.448 336.741 124.188 340.781 127.938 344.801C128.708 345.611 129.988 345.941 131.028 346.501C143.888 356.651 158.498 362.981 174.438 366.411C178.228 367.361 182.008 368.311 185.798 369.271C185.668 369.651 185.548 370.041 185.418 370.421C166.418 368.681 149.108 362.071 133.418 351.171C117.578 340.181 105.408 325.941 96.8884 308.621C74.5884 263.271 85.9084 208.461 124.528 175.331C134.568 166.721 145.848 160.951 146.788 160.501C164.748 151.741 181.338 150.331 190.948 150.261C140.788 152.891 96.2184 190.171 88.4684 243.701Z" fill="#6B7276"/>
<path d="M79.9682 395.91C89.6382 402.69 99.2482 409.53 108.988 416.19C112.078 418.3 115.518 419.91 118.798 421.75C124.228 423.93 129.658 426.1 135.088 428.28C139.888 429.81 144.698 431.35 149.498 432.88C154.938 434.26 160.368 435.66 165.818 437.02C167.348 437.4 168.908 437.65 170.458 437.96C170.418 438.33 170.378 438.71 170.338 439.08C166.798 438.69 163.258 438.31 159.718 437.92L159.808 438.01C149.348 434.69 138.768 431.69 128.468 427.93C121.308 425.32 114.538 421.67 107.588 418.49C106.428 417.71 105.258 416.93 104.098 416.15C99.4082 413.15 94.7182 410.15 90.0282 407.15L90.1382 407.24C82.5482 400.59 74.9582 393.94 67.3682 387.3C64.3082 384.08 61.2382 380.86 58.1782 377.64C53.1782 370.62 47.7982 363.83 43.2382 356.53C19.8782 319.2 11.0382 278.6 16.9282 234.96C22.5382 193.36 40.8882 158.09 70.8182 128.77C71.9582 127.66 73.1582 126.61 74.3382 125.54C74.5882 125.76 74.8382 125.97 75.0882 126.19C74.2682 127.07 73.4982 127.99 72.6382 128.82C39.2982 161.19 20.5482 200.45 17.1682 246.85C14.1682 288 24.5782 325.68 47.2482 360.05C47.8982 361.03 48.8282 361.82 49.6282 362.7L49.5482 362.59C49.7182 363.09 49.7682 363.71 50.0882 364.07C59.2082 374.27 68.3482 384.46 77.5482 394.6C78.1082 395.26 79.1382 395.49 79.9682 395.91Z" fill="#6B7276"/>
<path d="M71.6986 145.061C64.5986 154.881 56.6786 164.211 50.5286 174.601C13.2886 237.551 21.9986 319.131 71.2586 373.161C96.2486 400.571 126.969 417.881 163.179 425.611C164.389 425.871 165.569 426.231 166.759 426.551C166.699 426.951 166.639 427.351 166.579 427.751C165.109 427.601 163.599 427.591 162.159 427.281C92.3386 412.361 39.6386 357.741 28.3286 287.331C19.9086 234.861 33.7086 188.221 68.0186 147.651C68.9686 146.531 70.0986 145.551 71.1386 144.511C71.3386 144.691 71.5186 144.881 71.6986 145.061Z" fill="#6B7276"/>
<path d="M109.97 218.331C96.7799 248.001 97.2899 277.401 112.96 305.871C128.59 334.241 153.62 349.791 185.24 355.511C159.52 354.891 122.96 335.181 106 296.401C88.9499 257.411 104.2 210.601 131.92 186.451C138.4 180.801 145.92 176.261 145.92 176.261C163.71 165.751 181.05 163.671 190.97 163.301C150.99 165.761 121.46 192.471 109.97 218.331Z" fill="#6B7276"/>
<path d="M92.1497 330.301C99.1697 341.681 108.27 351.201 118.79 359.311C134.16 371.171 151.31 379.421 170.4 383.421C171.57 384.031 172.73 384.631 173.89 385.251C173.96 385.291 173.93 385.511 174.01 386.191C172.82 386.091 171.71 386.111 170.65 385.891C115.32 374.681 73.1597 327.181 68.7897 270.601C65.4097 226.821 81.0497 190.661 113.79 161.701C114.89 160.731 116.16 159.931 117.34 159.061C117.52 159.261 117.7 159.451 117.88 159.651C106.16 169.751 95.5897 180.861 87.7697 194.321C68.7697 226.991 64.9197 261.481 75.6097 297.641C76.0097 299.011 76.9097 300.231 77.5797 301.521C79.3197 305.981 81.0597 310.431 82.7997 314.891C85.9097 320.031 89.0297 325.161 92.1497 330.301Z" fill="#6B7276"/>
<path d="M13.5291 189.78C-7.17088 250.3 -2.81088 308.56 31.2191 363.03C65.2491 417.5 115.759 446.85 179.719 454.56C172.049 457.43 133.829 448.27 112.579 437.78C91.5591 427.41 72.6391 414.26 56.2491 397.51C-5.48088 334.45 -10.8609 247.42 13.5291 189.78Z" fill="#6B7276"/>
<path d="M69.3594 360.19C65.6694 354.65 61.9694 349.13 58.3094 343.57C57.5794 342.46 57.0794 341.22 56.4694 340.03C53.8894 335.09 51.2994 330.16 48.7194 325.22C47.5594 322.27 46.3994 319.33 45.2394 316.38C42.2194 303.14 38.1094 290.04 36.4094 276.63C33.0594 250.24 36.8794 224.49 46.8894 199.74C47.0894 199.24 47.3094 198.75 47.5894 198.29C47.7194 198.08 47.9994 197.96 48.6594 197.45C29.7094 247.73 32.1194 296.34 59.7994 342.2C87.4894 388.07 129.379 412.87 182.519 419.29C182.399 419.67 182.279 420.05 182.149 420.43C179.669 420.27 177.199 420.11 174.719 419.96C163.249 417.06 151.599 414.71 140.349 411.13C123.359 405.72 108.439 396.29 94.5494 385.21C93.0794 384.03 91.5994 382.87 90.1194 381.69C84.0294 375.15 77.9394 368.6 71.8194 362.08C71.1294 361.35 70.1894 360.82 69.3594 360.19Z" fill="#6B7276"/>
<path d="M181.14 402.931C170.26 400.461 159.13 398.801 148.57 395.361C128.14 388.711 110.38 377.351 95.2699 361.991C91.8699 358.531 88.5899 354.951 85.2499 351.431C82.2699 347.331 79.2799 343.221 76.2999 339.121C74.8199 336.461 73.3299 333.791 71.8499 331.131C67.9299 322.721 64.0099 314.311 60.0799 305.901L60.1699 305.991C58.0799 296.121 55.3199 286.341 54.0399 276.371C50.6299 249.781 55.0099 224.251 66.0499 199.841C66.3299 199.231 66.6799 198.651 67.0499 198.101C67.1599 197.941 67.4699 197.931 67.8399 197.801C48.4499 242.761 48.7299 287.191 73.0899 329.961C97.3899 372.631 135.3 395.621 183.79 402.521C182.9 402.651 182.02 402.791 181.14 402.931Z" fill="#6B7276"/>
<path d="M197.029 310.49C195.409 311.44 193.349 311.87 190.989 311.85C179.809 311.75 162.049 301.59 153.949 289.93C138.169 267.22 142.459 236.53 163.499 219.26C171.839 212.42 181.499 208.83 190.999 207.86C185.949 208.87 177.119 211.33 168.299 217.98C164.729 220.67 152.759 230.26 148.489 246.79C142.809 268.75 152.519 293.02 174.819 304.14C176.599 305.02 178.609 305.44 180.509 306.08C180.949 306.22 181.379 306.36 181.819 306.5C184.879 307.21 187.939 307.91 190.989 308.65C191.569 308.79 192.149 308.93 192.729 309.07C193.989 309.39 195.209 309.88 197.029 310.49Z" fill="#6B7276"/>
<path d="M43.8789 221.73C43.0389 227.45 42.1489 233.16 41.3489 238.88C31.1389 312.57 75.9989 384.4 146.869 407.93C160.129 412.33 173.739 414.81 187.649 415.82C189.009 415.92 190.349 416.27 191.699 416.5C191.659 416.95 191.609 417.4 191.569 417.86C187.549 417.59 183.529 417.42 179.519 417.02C111.419 410.2 53.4389 356.38 41.3489 288.87C37.5989 267.9 37.7789 247.02 42.2489 226.19C42.5789 224.67 43.3689 223.25 43.9389 221.78L43.8789 221.73Z" fill="#6B7276"/>
<path d="M191.879 313.77C191.749 314.17 191.619 314.56 191.479 314.96C191.319 314.96 191.159 314.96 190.989 314.97C188.819 315.01 186.589 315.33 184.509 314.9C160.879 310.05 142.919 289.54 140.319 264.61C137.899 241.33 151.959 217.48 173.629 208.05C179.369 205.55 185.159 204 190.999 203.41L191.709 203.88C190.289 204.26 188.269 204.83 185.859 205.59C181.789 206.88 176.119 208.45 171.559 210.94C159.929 217.28 151.239 226.57 146.439 238.99C139.909 255.88 141.079 272.43 150.559 287.93C159.729 302.93 173.609 311.11 190.989 313.64C191.279 313.69 191.579 313.73 191.879 313.77Z" fill="#6B7276"/>
<path d="M97.9195 326.651C92.8495 315.811 86.2395 305.411 82.9995 294.051C70.1895 249.071 80.4395 209.331 112.65 175.341C113.61 174.331 114.71 173.461 116.03 172.761C82.7795 207.641 70.2695 248.311 84.7995 294.681C99.2795 340.871 132.69 367.061 179.94 376.381C179.79 376.761 179.63 377.131 179.48 377.511C177.04 377.111 174.51 376.991 172.19 376.251C162.59 373.161 153.05 369.881 143.49 366.671L143.61 366.751C143.21 366.411 142.85 365.981 142.4 365.741C125.94 357.121 112.13 345.401 100.99 330.531C100.39 329.731 99.3695 329.241 98.5495 328.611C98.3295 327.961 98.1195 327.301 97.9195 326.651Z" fill="#6B7276"/>
<path d="M132.889 237.04C125.709 257.56 127.919 277.48 139.599 296.01C151.249 314.5 168.599 324.29 189.939 327.91C170.489 328.7 143.409 312.82 132.449 286.19C120.239 256.55 130.009 222.35 156.379 203.29C167.079 195.56 179.189 191.64 190.989 190.74L192.099 191.24C192.099 191.25 184.289 193.16 175.169 195.38C154.439 202.36 140.099 216.45 132.889 237.04Z" fill="#6B7276"/>
<path d="M97.9198 326.651C98.1298 327.301 98.3298 327.951 98.5398 328.601C105.46 338.701 113.7 347.631 123.66 354.701C129.97 359.181 136.93 362.751 143.61 366.731L143.49 366.651C149.77 369.311 155.85 372.761 162.38 374.451C171.47 376.801 180.9 377.851 190.18 379.431C191.41 379.641 192.67 379.701 194.65 379.901C186.16 385.181 149.21 374.641 129.89 361.211C89.9898 333.511 72.6398 295.001 76.0198 246.991C76.3598 246.901 76.6998 246.811 77.0298 246.721C77.0298 254.691 76.4998 262.711 77.1398 270.631C78.6898 289.781 84.8998 307.491 95.2298 323.711C95.9298 324.821 97.0098 325.681 97.9198 326.651Z" fill="#6B7276"/>
<path d="M196.039 295.781C194.549 296.501 192.859 296.851 191.029 296.861C181.979 296.901 169.689 288.801 163.719 278.291C154.579 262.191 160.649 239.321 174.809 229.011C179.669 225.471 184.679 224.021 188.139 223.351C190.429 223.491 191.609 223.571 191.609 223.571C191.609 223.571 191.379 223.861 191.019 224.311C188.889 224.681 186.009 225.381 182.759 226.741C173.759 230.501 167.259 237.041 163.759 246.141C159.309 257.701 160.319 268.911 167.209 279.331C173.019 288.111 181.209 292.901 191.029 294.971C192.659 295.311 194.329 295.581 196.039 295.781Z" fill="#6B7276"/>
<path d="M192 306.661C191.84 307.141 191.69 307.621 191.54 308.101C191.36 308.071 191.17 308.041 190.99 308.011C187.93 307.511 184.88 307.001 181.82 306.501C181.38 306.361 180.95 306.221 180.51 306.081C169.5 301.201 160.44 294.201 154.32 283.531C137.52 254.211 156.43 216.011 189.94 211.801C190.29 211.751 190.65 211.711 191.01 211.681C191.59 211.911 191.97 212.061 191.97 212.061C191.97 212.061 191.6 212.431 191.01 212.991C189.11 213.241 186.51 213.701 183.51 214.581C169.09 218.831 158.71 228.111 153.21 242.181C147.56 256.621 148.65 270.831 156.71 284.141C164.49 296.981 176.31 304.001 191.03 306.501C191.35 306.561 191.67 306.611 192 306.661Z" fill="#6B7276"/>
<path d="M189.709 332.03C166.899 330.05 148.979 319.43 135.979 300.56C118.879 275.73 120.779 243.46 133.339 224.46C122.239 247.38 121.299 270.48 133.289 293.12C145.229 315.71 164.769 327.88 189.709 332.03Z" fill="#6B7276"/>
<path d="M146.099 229.36C136.499 248.73 135.229 268.24 145.909 287.45C156.449 306.4 173.299 315.97 194.819 317.94C182.739 322.35 158.109 308.76 147.039 292.44C131.109 268.98 136.389 241.82 146.099 229.36Z" fill="#6B7276"/>
<path d="M190.918 89.3701C190.908 89.7401 190.908 90.1001 190.918 90.4601C157.418 91.4501 126.018 102.12 96.4883 122.59C113.808 104.77 155.098 91.7701 190.918 89.3701Z" fill="#6B7276"/>
<path d="M191.03 250.44V268.74C186.9 266.38 185.04 261.29 186.37 256.57C187.11 253.96 188.82 251.8 191.03 250.44Z" fill="#6B7276"/>
<path d="M189.239 79.2701C162.879 80.4001 137.149 87.3702 111.969 100.26C116.979 93.4202 156.649 80.8802 176.829 79.0502C180.039 78.7602 183.199 78.5502 186.299 78.4102C187.609 78.5102 188.559 78.7701 189.239 79.2701Z" fill="#6B7276"/>
<path d="M190.94 141.061C190.95 141.321 190.95 141.581 190.94 141.851C177.93 142.541 164.85 145.461 151.67 150.621C157.61 144.551 173.55 141.381 190.94 141.061Z" fill="#6B7276"/>
<path d="M175.98 133.13C180.96 132.32 185.94 131.84 190.93 131.65V132.7C176.53 133.16 162.61 136.42 149.14 141.78C147.65 142.38 146.12 142.89 144.61 143.44C144.44 143.24 144.27 143.04 144.09 142.85C154.18 137.82 164.91 134.92 175.98 133.13Z" fill="#6B7276"/>
<path d="M123.529 138.43C116.579 143.46 109.629 148.501 102.679 153.531C102.469 153.241 102.259 152.961 102.049 152.671C107.889 146.371 114.769 141.401 122.499 137.521C122.839 137.831 123.179 138.13 123.529 138.43Z" fill="#6B7276"/>
<path d="M43.9489 221.781C45.7189 215.471 47.1089 209.031 49.3489 202.891C51.6789 196.471 54.8189 190.331 58.3989 184.311C58.2289 184.921 58.1189 185.561 57.8889 186.151C53.6189 197.181 49.3389 208.211 45.0489 219.231C44.7189 220.091 44.2689 220.901 43.8789 221.731L43.9489 221.781Z" fill="#6B7276"/>
<path d="M144.61 143.441C135.7 148.841 126.79 154.251 117.87 159.651C117.69 159.451 117.51 159.261 117.33 159.061C125.39 152.241 134.33 146.861 144.09 142.851C144.27 143.041 144.44 143.241 144.61 143.441Z" fill="#6B7276"/>
<path d="M86.3984 114.981C93.6384 110.251 100.868 105.531 108.108 100.801C108.318 101.121 108.528 101.441 108.738 101.761C101.498 106.531 94.2584 111.301 87.0284 116.061C86.8184 115.701 86.6084 115.341 86.3984 114.981Z" fill="#6B7276"/>
<path d="M123.58 165.251C130.3 161.021 137.02 156.791 143.73 152.561C143.95 152.901 144.17 153.241 144.39 153.581C137.68 157.801 130.96 162.021 124.25 166.241C124.02 165.911 123.8 165.581 123.58 165.251Z" fill="#6B7276"/>
<path d="M33.4199 188.001C33.8599 184.441 35.2399 181.341 37.7099 178.771C38.1899 178.991 38.6699 179.221 39.1399 179.441C37.6899 182.501 36.2399 185.571 34.7799 188.631C34.3299 188.431 33.8699 188.211 33.4199 188.001Z" fill="#6B7276"/>
<path d="M71.1484 144.511C76.1884 139.371 81.2284 134.231 86.2584 129.091C86.0284 128.861 85.7884 128.621 85.5584 128.391C80.9384 133.951 76.3184 139.511 71.6984 145.071C71.5184 144.881 71.3384 144.691 71.1484 144.511Z" fill="#6B7276"/>
<path d="M123.53 138.431C123.18 138.131 122.84 137.831 122.5 137.531C126.25 135.511 129.99 133.491 133.74 131.471C133.96 131.881 134.17 132.301 134.39 132.711C130.76 134.621 127.15 136.521 123.53 138.431Z" fill="#6B7276"/>
<path d="M58.919 271.13C59.035 271.13 59.129 266.089 59.129 259.87C59.129 253.652 59.035 248.61 58.919 248.61C58.803 248.61 58.709 253.652 58.709 259.87C58.709 266.089 58.803 271.13 58.919 271.13Z" fill="#6B7276"/>
<path d="M157.309 123.74C153.489 125.01 149.669 126.29 145.849 127.56C145.739 127.25 145.639 126.93 145.529 126.62C149.329 125.32 153.139 124.03 156.939 122.73C157.059 123.07 157.179 123.41 157.309 123.74Z" fill="#6B7276"/>
<path d="M69.3594 360.19C70.1894 360.82 71.1194 361.36 71.8294 362.1C77.9494 368.61 84.0394 375.17 90.1294 381.71C83.2094 374.54 76.2894 367.36 69.3594 360.19Z" fill="#6B7276"/>
<path d="M48.7188 325.23C51.2987 330.17 53.8888 335.1 56.4688 340.04C53.8888 335.1 51.3087 330.16 48.7188 325.23Z" fill="#6B7276"/>
<path d="M131.039 346.491C129.999 345.941 128.709 345.611 127.949 344.791C120.569 336.881 113.249 328.911 105.979 320.901C105.299 320.151 105.059 319.011 104.619 318.051C107.749 322.041 110.609 326.291 114.089 329.951C119.509 335.681 125.359 341.001 131.039 346.491Z" fill="#6B7276"/>
<path d="M117.979 329.53C119.429 331.05 120.829 332.47 122.179 333.94C123.439 335.32 124.649 336.74 126.519 337.53C123.669 334.87 120.829 332.21 117.979 329.53Z" fill="#6B7276"/>
<path d="M135.499 397.52C128.979 393.98 122.459 390.45 115.939 386.91C122.459 390.45 128.979 393.99 135.499 397.52Z" fill="#6B7276"/>
<path d="M155.749 404.81C148.959 402.36 142.159 399.91 135.369 397.46C142.169 399.91 148.959 402.36 155.749 404.81Z" fill="#6B7276"/>
<path d="M116.05 387C111.43 383.6 106.8 380.19 102.18 376.79C106.8 380.19 111.43 383.59 116.05 387Z" fill="#6B7276"/>
<path d="M98.1191 145.62C101.929 142.48 105.739 139.35 109.549 136.21C105.739 139.35 101.929 142.49 98.1191 145.62Z" fill="#6B7276"/>
<path d="M79.9994 354.6C76.8694 350.51 73.7394 346.41 70.6094 342.32C73.7394 346.41 76.8694 350.5 79.9994 354.6Z" fill="#6B7276"/>
<path d="M141.908 192.551C142.408 193.081 142.908 193.611 143.408 194.141C140.468 196.871 137.688 199.781 134.558 202.271C131.898 204.391 128.858 206.021 125.988 207.871C130.218 203.171 134.388 198.421 138.718 193.821C139.428 193.061 140.828 192.951 141.908 192.551Z" fill="#6B7276"/>
<path d="M190.97 172.11C190.23 173.11 189.53 173.46 189 173.59C188.78 173.64 188.63 173.65 187.77 173.75C187.24 173.81 186.71 173.89 186.18 173.96C181.95 174.76 177.73 175.56 173.51 176.36C174.65 175.61 175.7 174.44 176.95 174.16C181.62 173.1 186.29 172.41 190.97 172.11Z" fill="#6B7276"/>
<path d="M190.979 174.16V174.17C190.969 174.71 190.979 175.24 190.979 175.79C187.699 175.99 184.419 176.18 181.129 176.37C178.529 176.56 175.919 176.75 173.309 176.94C173.319 176.73 173.389 176.53 173.509 176.36C177.729 175.56 181.949 174.76 186.179 173.96C187.779 174.03 189.379 174.1 190.979 174.16Z" fill="#6B7276"/>
<path d="M107.58 418.5C114.53 421.68 121.3 425.33 128.46 427.94C138.76 431.7 149.34 434.7 159.8 438.02C146.51 436 134 431.48 121.81 426.02C116.93 423.83 112.32 421.02 107.58 418.5Z" fill="#6B7276"/>
<path d="M67.3594 387.311C74.9494 393.961 82.5394 400.611 90.1294 407.251C81.5794 401.691 73.4394 395.681 67.3594 387.311Z" fill="#6B7276"/>
<path d="M90.0195 407.171C94.7095 410.171 99.3995 413.171 104.09 416.171C99.3995 413.161 94.7095 410.171 90.0195 407.171Z" fill="#6B7276"/>
<path d="M79.9693 395.91C79.1493 395.49 78.1093 395.26 77.5293 394.62C68.3393 384.48 59.1993 374.29 50.0693 364.09C49.7393 363.72 49.6993 363.11 49.5293 362.61C50.9093 364.23 52.2293 365.9 53.6793 367.47C62.4193 376.96 71.1993 386.43 79.9693 395.91Z" fill="#6B7276"/>
<path d="M92.1491 330.301C89.0291 325.161 85.9091 320.021 82.7891 314.881C85.9091 320.031 89.0291 325.161 92.1491 330.301Z" fill="#6B7276"/>
<path d="M143.599 366.74C136.929 362.76 129.969 359.19 123.649 354.71C113.689 347.63 105.449 338.71 98.5293 328.61C99.3493 329.24 100.369 329.73 100.969 330.53C112.109 345.41 125.919 357.13 142.379 365.74C142.839 365.98 143.199 366.41 143.599 366.74Z" fill="#6B7276"/>
</g>
<defs>
<clipPath id="clip0_445_226">
<rect width="472.59" height="519.03" fill="white"/>
</clipPath>
</defs>
</svg>
