<svg width="30" height="30" viewBox="0 0 30 30" fill="none" xmlns="http://www.w3.org/2000/svg">
<g id="ph:telegram-logo-light">
<path id="Vector" d="M27.6061 3.24616C27.493 3.14851 27.3555 3.08358 27.2082 3.05838C27.061 3.03319 26.9096 3.04868 26.7705 3.10319L3.02132 12.3973C2.73245 12.5104 2.48805 12.7141 2.32483 12.9778C2.1616 13.2416 2.08836 13.5512 2.11609 13.8602C2.14383 14.1691 2.27106 14.4607 2.47866 14.6912C2.68626 14.9217 2.96303 15.0786 3.26741 15.1383L9.6096 16.384V23.4376C9.60973 23.7646 9.70758 24.0841 9.89058 24.3551C10.0736 24.6261 10.3334 24.8362 10.6367 24.9585C10.9399 25.0808 11.2728 25.1096 11.5926 25.0414C11.9124 24.9732 12.2045 24.8109 12.4315 24.5755L15.5533 21.3376L20.426 25.609C20.7235 25.8723 21.1069 26.0177 21.5041 26.018C21.6776 26.0176 21.85 25.9904 22.0151 25.9372C22.2858 25.8515 22.5293 25.6964 22.7213 25.4873C22.9134 25.2782 23.0472 25.0224 23.1096 24.7454L27.8698 4.05124C27.9032 3.90575 27.8964 3.75389 27.8499 3.61203C27.8034 3.47016 27.7191 3.34366 27.6061 3.24616ZM3.52171 13.7544C3.51722 13.7423 3.51722 13.729 3.52171 13.7169C3.527 13.7128 3.53294 13.7096 3.53929 13.7075L22.2553 6.38092L10.1498 15.0528L3.53929 13.7591L3.52171 13.7544ZM11.419 23.5981C11.3867 23.6316 11.3451 23.6548 11.2996 23.6646C11.2541 23.6744 11.2067 23.6704 11.1635 23.6532C11.1203 23.636 11.0831 23.6063 11.0568 23.5679C11.0305 23.5295 11.0163 23.4841 11.0158 23.4376V17.3567L14.4951 20.4036L11.419 23.5981ZM21.7397 24.4278C21.731 24.4674 21.7119 24.504 21.6843 24.5337C21.6566 24.5634 21.6215 24.5851 21.5826 24.5965C21.543 24.6105 21.5003 24.6135 21.459 24.6052C21.4178 24.597 21.3795 24.5778 21.3483 24.5497L11.4424 15.8602L26.133 5.3321L21.7397 24.4278Z" fill="#1E1E1E"/>
</g>
</svg>
