<svg width="16" height="20" viewBox="0 0 16 20" fill="none" xmlns="http://www.w3.org/2000/svg">
<path id="Vector" d="M8 9.88311C8.55 9.88311 9.021 9.69569 9.413 9.32085C9.805 8.94601 10.0007 8.49594 10 7.97065C10 7.44472 9.804 6.99434 9.412 6.6195C9.02 6.24465 8.54933 6.05755 8 6.05819C7.45 6.05819 6.979 6.24561 6.587 6.62045C6.195 6.9953 5.99933 7.44536 6 7.97065C6 8.49658 6.196 8.94696 6.588 9.32181C6.98 9.69665 7.45067 9.88375 8 9.88311ZM8 16.9114C10.0333 15.1264 11.5417 13.5047 12.525 12.0461C13.5083 10.5875 14 9.2928 14 8.1619C14 6.42474 13.4207 5.00251 12.262 3.89519C11.1033 2.78788 9.68267 2.2339 8 2.23326C6.31667 2.23326 4.89567 2.78724 3.737 3.89519C2.57833 5.00315 1.99933 6.42538 2 8.1619C2 9.29344 2.49167 10.5885 3.475 12.0471C4.45833 13.5056 5.96667 15.1271 8 16.9114ZM8 19.4454C5.31667 17.262 3.31267 15.2342 1.988 13.3619C0.663333 11.4896 0.000666667 9.75625 0 8.1619C0 5.77132 0.804333 3.86682 2.413 2.44842C4.02167 1.03001 5.884 0.320801 8 0.320801C10.1167 0.320801 11.9793 1.03001 13.588 2.44842C15.1967 3.86682 16.0007 5.77132 16 8.1619C16 9.75562 15.3373 11.4889 14.012 13.3619C12.6867 15.2348 10.6827 17.2627 8 19.4454Z" fill="white"/>
</svg>
